<?xml version="1.0" encoding="utf-8"?>
<!-- Generator: Adobe Illustrator 16.0.0, SVG Export Plug-In . SVG Version: 6.00 Build 0)  -->
<!DOCTYPE svg PUBLIC "-//W3C//DTD SVG 1.1//EN" "http://www.w3.org/Graphics/SVG/1.1/DTD/svg11.dtd">
<svg version="1.1" id="Camada_1" xmlns="http://www.w3.org/2000/svg" xmlns:xlink="http://www.w3.org/1999/xlink" x="0px" y="0px"
	 width="76.436px" height="52.577px" viewBox="-12.564 -2.577 76.436 52.577" enable-background="new -12.564 -2.577 76.436 52.577"
	 xml:space="preserve">
<g>
	<g>
		<g>
			<g>
				<path fill="#FFFFFF" d="M3.604,25.287H2.298c-1.218,0-2.209-0.99-2.209-2.209v-8.335H0.78v8.335
					c0,0.928,0.592,1.614,1.518,1.614h1.307L3.604,25.287L3.604,25.287z"/>
			</g>
			<path fill="#FFFFFF" d="M3.604,21.247l15.842,7.89v5.27L3.604,26.59V21.247z M5.1,23.855c-0.503,0-0.933,0.318-1.098,0.764
				c-0.016,0.047-0.029-0.033-0.04,0.014c-0.002,0.006-0.358,0-0.358,0v0.654H3.96c0.003,0.01,0.005,0.02,0.009,0.027
				c0.13,0.504,0.587,0.877,1.131,0.877c0.646,0,1.168-0.523,1.168-1.168S5.747,23.855,5.1,23.855z"/>
		</g>
		<polygon fill="#FFFFFF" points="3.604,27.615 19.446,35.502 19.446,40.77 3.604,32.957 		"/>
		<g>
			<g>
				<path id="SVGID_1_" fill="#FFFFFF" d="M19.537,47.445L3.604,39.621v-5.969l15.933,7.902V47.445z M4.165,39.273l14.814,7.271
					V41.9L4.165,34.557V39.273z"/>
			</g>
		</g>
		<g>
			<g>
				<path id="SVGID_3_" fill="#FFFFFF" d="M20.447,47.445v-5.891l15.924-7.902v5.969L20.447,47.445z M21.007,41.9v4.646
					l14.804-7.272v-4.717L21.007,41.9z"/>
			</g>
		</g>
		<polygon fill="#FFFFFF" points="36.371,21.247 20.528,29.137 20.528,34.404 36.371,26.59 		"/>
		<polygon fill="#FFFFFF" points="36.371,27.615 20.528,35.502 20.528,40.771 36.371,32.957 		"/>
		<polygon fill="#FFFFFF" points="4.293,20.359 20.014,12.555 35.656,20.341 19.936,28.145 		"/>
		<g>
			<path fill="none" stroke="#FFFFFF" stroke-miterlimit="10" d="M34.061,37.139h6.006c1.072,0,1.947-0.875,1.947-1.945V17.324"/>
			<circle fill="#FFFFFF" cx="34.063" cy="37.139" r="1.168"/>
		</g>
	</g>
	<g>
		<path fill="none" stroke="#FFFFFF" stroke-miterlimit="10" d="M57.398,12.85c0,1.604-1.312,2.918-2.918,2.918H38.574
			c-1.605,0-2.92-1.313-2.92-2.918V5.569c0-1.604,1.313-2.918,2.92-2.918H54.48c1.606,0,2.918,1.313,2.918,2.918V12.85z"/>
		<path fill="#FFFFFF" d="M35.656,7.911v3.938c0,2.154,1.314,3.92,2.918,3.92H54.48c1.606,0,2.918-1.766,2.918-3.92V7.911H35.656z"
			/>
	</g>
	<g>
		<path fill="#FFFFFF" d="M-3.327-2.386c0.071-0.087,0.11-0.168,0.213-0.168h9.158c0.488,0,0.885,0.396,0.885,0.886v13.897
			c0,0.488-0.396,0.886-0.885,0.886h-9.809h-1.571c-0.488,0-0.886-0.397-0.886-0.886V1.498c0-0.006,0.002-0.039,0.026-0.071
			C-5.859,0.976-3.327-2.386-3.327-2.386z M-2.815-2.469c-0.172-0.234-0.429-0.028-0.493,0.057l-2.876,3.819
			c-0.049,0.067-0.049,0.16,0,0.227c0.05,0.067,0.14,0.094,0.218,0.065l0.705-0.267h2.363c0.052,0,0.103-0.021,0.139-0.062
			c0.035-0.038,0.055-0.09,0.05-0.142l-0.137-3.197C-2.799-2.172-2.703-2.315-2.815-2.469z"/>
		<g>
			<path fill="#161615" d="M4.918,11.459h-9.129c-0.31,0-0.56-0.251-0.56-0.56c0-0.31,0.25-0.56,0.56-0.56h9.129
				c0.31,0,0.559,0.25,0.559,0.56C5.476,11.208,5.227,11.459,4.918,11.459z"/>
		</g>
		<g>
			<path fill="#161615" d="M4.918,8.558h-9.129c-0.31,0-0.56-0.25-0.56-0.56c0-0.309,0.25-0.56,0.56-0.56h9.129
				c0.31,0,0.559,0.251,0.559,0.56C5.476,8.308,5.227,8.558,4.918,8.558z"/>
		</g>
		<g>
			<path fill="#161615" d="M4.918,5.658h-9.129c-0.31,0-0.56-0.25-0.56-0.56s0.25-0.56,0.56-0.56h9.129
				c0.31,0,0.559,0.25,0.559,0.56S5.227,5.658,4.918,5.658z"/>
		</g>
	</g>
</g>
</svg>
