<?xml version="1.0" encoding="iso-8859-1"?>
<!-- Generator: Adobe Illustrator 16.0.0, SVG Export Plug-In . SVG Version: 6.00 Build 0)  -->
<!DOCTYPE svg PUBLIC "-//W3C//DTD SVG 1.1//EN" "http://www.w3.org/Graphics/SVG/1.1/DTD/svg11.dtd">
<svg version="1.1" id="Camada_1" xmlns="http://www.w3.org/2000/svg" xmlns:xlink="http://www.w3.org/1999/xlink" x="0px" y="0px"
	 width="328.725px" height="328.724px" viewBox="0 0 328.725 328.724" style="enable-background:new 0 0 328.725 328.724;"
	 xml:space="preserve">
<g>
	<g>
		<g>
			<path style="fill:#2F2F2F;" d="M326.725,324.724c0,1.101-0.9,2-2,2H4c-1.1,0-2-0.899-2-2V4c0-1.1,0.9-2,2-2h320.725
				c1.1,0,2,0.9,2,2V324.724z"/>
			<path style="fill:none;stroke:#FFFFFF;stroke-width:4;stroke-miterlimit:10;" d="M326.725,324.724c0,1.101-0.9,2-2,2H4
				c-1.1,0-2-0.899-2-2V4c0-1.1,0.9-2,2-2h320.725c1.1,0,2,0.9,2,2V324.724z"/>
		</g>
	</g>
</g>
<g>
	<path style="fill:#FFFFFF;" d="M32.297,169.777h0.576c0.612,0,0.9-0.145,1.116-0.792l7.595-20.77h4.932l7.559,20.77
		c0.216,0.647,0.504,0.792,1.116,0.792h0.576v3.995h-2.808c-1.799,0-2.447-0.468-3.023-2.088l-1.584-4.464h-8.639l-1.584,4.464
		c-0.576,1.62-1.188,2.088-2.987,2.088h-2.844V169.777z M47.271,163.333l-2.196-6.407c-0.468-1.404-1.008-3.815-1.008-3.815h-0.072
		c0,0-0.54,2.411-1.008,3.815l-2.195,6.407H47.271z"/>
	<path style="fill:#FFFFFF;" d="M62.537,164.485l-3.023-4.571c-0.36-0.54-0.648-0.612-1.404-0.612h-1.332v-3.887h3.204
		c1.512,0,2.16,0.324,2.988,1.728l1.8,3.023c0.252,0.468,0.576,1.188,0.576,1.188h0.072c0,0,0.324-0.72,0.576-1.188l1.8-3.023
		c0.828-1.404,1.44-1.728,2.988-1.728h3.167v3.887h-1.296c-0.756,0-1.044,0.072-1.404,0.612l-3.06,4.571l6.011,9.287h-5.075
		l-3.204-5.111c-0.252-0.36-0.504-0.972-0.504-0.972h-0.072c0,0-0.288,0.576-0.54,0.972l-3.168,5.111h-5.075L62.537,164.485z"/>
	<path style="fill:#FFFFFF;" d="M85.792,154.982c5.615,0,10.079,3.996,10.079,9.611c0,5.651-4.463,9.61-10.079,9.61
		c-5.58,0-10.043-3.959-10.043-9.61C75.75,158.978,80.213,154.982,85.792,154.982z M85.792,170.316c2.987,0,5.471-2.303,5.471-5.723
		c0-3.384-2.484-5.724-5.471-5.724c-2.952,0-5.436,2.34-5.436,5.724C80.357,168.013,82.841,170.316,85.792,170.316z"/>
	<path style="fill:#FFFFFF;" d="M100.014,160.094c0-0.54-0.288-0.792-0.792-0.792h-1.44v-3.887h4.211
		c1.62,0,2.412,0.756,2.412,2.052v0.54c0,0.396-0.072,0.792-0.072,0.792h0.072c0.792-1.548,2.772-3.815,6.479-3.815
		c4.067,0,6.407,2.124,6.407,6.983v7.163c0,0.504,0.288,0.792,0.792,0.792h1.44v3.852h-4.355c-1.728,0-2.448-0.72-2.448-2.448
		v-8.422c0-2.232-0.576-3.744-2.879-3.744c-2.448,0-4.284,1.548-4.932,3.744c-0.252,0.756-0.36,1.583-0.36,2.448v8.423h-4.535
		V160.094z"/>
	<path style="fill:#FFFFFF;" d="M131.369,154.982c5.615,0,10.079,3.996,10.079,9.611c0,5.651-4.463,9.61-10.079,9.61
		c-5.58,0-10.043-3.959-10.043-9.61C121.326,158.978,125.789,154.982,131.369,154.982z M131.369,170.316
		c2.987,0,5.471-2.303,5.471-5.723c0-3.384-2.484-5.724-5.471-5.724c-2.952,0-5.436,2.34-5.436,5.724
		C125.933,168.013,128.417,170.316,131.369,170.316z"/>
	<path style="fill:#FFFFFF;" d="M145.589,160.094c0-0.54-0.288-0.792-0.792-0.792h-1.44v-3.887h4.211
		c1.62,0,2.412,0.756,2.412,2.052v0.54c0,0.396-0.036,0.792-0.036,0.792h0.072c0.864-1.8,3.06-3.815,5.939-3.815
		c2.771,0,4.571,1.295,5.363,3.78h0.072c0.972-1.98,3.348-3.78,6.263-3.78c3.815,0,6.011,2.16,6.011,6.983v7.163
		c0,0.504,0.288,0.792,0.792,0.792h1.404v3.852h-4.319c-1.728,0-2.448-0.72-2.448-2.448v-8.494c0-2.088-0.396-3.672-2.52-3.672
		c-2.268,0-3.888,1.908-4.392,4.212c-0.216,0.72-0.288,1.476-0.288,2.339v8.063h-4.571V162.83c0-1.98-0.288-3.672-2.484-3.672
		c-2.304,0-3.852,1.908-4.427,4.248c-0.18,0.72-0.288,1.476-0.288,2.303v8.063h-4.535V160.094z"/>
	<path style="fill:#FFFFFF;" d="M187.025,154.982c5.255,0,8.135,3.851,8.135,8.711c0,0.54-0.108,1.692-0.108,1.692h-12.67
		c0.36,3.239,2.736,4.931,5.507,4.931c2.952,0,5.147-2.051,5.147-2.051l1.908,3.167c0,0-2.808,2.771-7.379,2.771
		c-6.083,0-9.863-4.392-9.863-9.61C177.702,158.942,181.518,154.982,187.025,154.982z M190.48,162.217
		c-0.072-2.195-1.583-3.708-3.456-3.708c-2.34,0-3.996,1.404-4.5,3.708H190.48z M187.889,148.251h4.392l-3.779,4.895h-3.348
		L187.889,148.251z"/>
	<path style="fill:#FFFFFF;" d="M199.662,159.05h-2.375v-3.635h2.483v-5.004h4.463v5.004h4.176v3.635h-4.176v7.415
		c0,3.024,2.376,3.456,3.636,3.456c0.504,0,0.828-0.072,0.828-0.072v3.996c0,0-0.576,0.107-1.404,0.107
		c-2.556,0-7.631-0.756-7.631-6.911V159.05z"/>
	<path style="fill:#FFFFFF;" d="M212.91,160.094c0-0.54-0.288-0.792-0.792-0.792h-1.44v-3.887h4.175c1.62,0,2.448,0.684,2.448,2.231
		v1.08c0,0.684-0.072,1.151-0.072,1.151h0.072c0.828-2.627,3.024-4.715,5.832-4.715c0.396,0,0.828,0.072,0.828,0.072v4.5
		c0,0-0.468-0.072-1.116-0.072c-1.944,0-4.175,1.116-5.003,3.852c-0.252,0.9-0.396,1.908-0.396,2.988v7.271h-4.535V160.094z"/>
	<path style="fill:#FFFFFF;" d="M227.886,160.094c0-0.54-0.288-0.792-0.792-0.792h-1.44v-3.887h4.355
		c1.692,0,2.412,0.756,2.412,2.447v11.267c0,0.504,0.288,0.792,0.792,0.792h1.44v3.852h-4.355c-1.692,0-2.412-0.72-2.412-2.448
		V160.094z M228.102,148.215h3.959v4.211h-3.959V148.215z"/>
	<path style="fill:#FFFFFF;" d="M246.713,154.982c2.375,0,6.659,0.972,6.659,4.139v2.16h-4.032v-1.008
		c0-1.008-1.512-1.44-2.627-1.44c-3.168,0-5.436,2.412-5.436,5.724c0,3.743,2.771,5.651,5.723,5.651
		c3.132,0,5.436-2.484,5.436-2.484l1.908,3.168c0,0-2.736,3.312-7.739,3.312c-6.047,0-9.935-4.283-9.935-9.61
		C236.67,159.41,240.414,154.982,246.713,154.982z"/>
	<path style="fill:#FFFFFF;" d="M266.981,162.253h0.576v-0.144c0-2.627-1.044-3.6-3.384-3.6c-0.828,0-2.447,0.216-2.447,1.224v0.972
		h-4.248v-1.943c0-3.42,4.823-3.78,6.731-3.78c6.119,0,7.919,3.204,7.919,7.307v6.839c0,0.504,0.288,0.792,0.792,0.792h1.44v3.852
		h-4.104c-1.692,0-2.34-0.936-2.34-2.016c0-0.468,0.036-0.792,0.036-0.792h-0.072c0,0-1.404,3.239-5.543,3.239
		c-3.276,0-6.263-2.052-6.263-5.723C256.075,162.721,263.994,162.253,266.981,162.253z M263.454,170.64
		c2.448,0,4.175-2.592,4.175-4.823v-0.432h-0.792c-2.376,0-6.155,0.323-6.155,2.88C260.682,169.489,261.582,170.64,263.454,170.64z"
		/>
	<path style="fill:#FFFFFF;" d="M278.106,167.941c0,0,2.34,2.699,5.471,2.699c1.404,0,2.484-0.576,2.484-1.8
		c0-2.591-9.683-2.556-9.683-8.495c0-3.671,3.312-5.363,7.127-5.363c2.483,0,6.443,0.828,6.443,3.815v1.908h-4.032v-0.9
		c0-0.864-1.296-1.296-2.304-1.296c-1.62,0-2.736,0.576-2.736,1.656c0,2.88,9.755,2.304,9.755,8.423c0,3.456-3.06,5.615-7.055,5.615
		c-5.039,0-7.631-3.275-7.631-3.275L278.106,167.941z"/>
</g>
</svg>
