<?xml version="1.0" encoding="iso-8859-1"?>
<!-- Generator: Adobe Illustrator 16.0.0, SVG Export Plug-In . SVG Version: 6.00 Build 0)  -->
<!DOCTYPE svg PUBLIC "-//W3C//DTD SVG 1.1//EN" "http://www.w3.org/Graphics/SVG/1.1/DTD/svg11.dtd">
<svg version="1.1" id="Camada_1" xmlns="http://www.w3.org/2000/svg" xmlns:xlink="http://www.w3.org/1999/xlink" x="0px" y="0px"
	 width="328.725px" height="328.724px" viewBox="0 0 328.725 328.724" style="enable-background:new 0 0 328.725 328.724;"
	 xml:space="preserve">
<g>
	<g>
		<g>
			<path style="fill:#2F2F2F;" d="M326.725,324.724c0,1.101-0.9,2-2,2H4c-1.1,0-2-0.899-2-2V4c0-1.1,0.9-2,2-2h320.725
				c1.1,0,2,0.9,2,2V324.724z"/>
			<path style="fill:none;stroke:#FFFFFF;stroke-width:4;stroke-miterlimit:10;" d="M326.725,324.724c0,1.101-0.9,2-2,2H4
				c-1.1,0-2-0.899-2-2V4c0-1.1,0.9-2,2-2h320.725c1.1,0,2,0.9,2,2V324.724z"/>
		</g>
	</g>
</g>
<g>
	<path style="fill:#FFFFFF;" d="M60.789,152.21h-2.34v-3.995h11.699c4.788,0,8.135,3.348,8.135,8.314
		c0,4.968-3.347,8.423-8.135,8.423h-4.644v8.819h-4.715V152.21z M69.284,160.921c2.664,0,4.175-1.728,4.175-4.392
		c0-2.627-1.512-4.319-4.104-4.319h-3.852v8.711H69.284z"/>
	<path style="fill:#FFFFFF;" d="M82.138,160.094c0-0.54-0.288-0.792-0.792-0.792h-1.44v-3.887h4.355
		c1.692,0,2.412,0.756,2.412,2.447v11.267c0,0.504,0.288,0.792,0.792,0.792h1.44v3.852h-4.355c-1.692,0-2.412-0.72-2.412-2.448
		V160.094z M82.354,148.215h3.959v4.211h-3.959V148.215z"/>
	<path style="fill:#FFFFFF;" d="M100.965,154.982c2.375,0,6.659,0.972,6.659,4.139v2.16h-4.032v-1.008
		c0-1.008-1.512-1.44-2.627-1.44c-3.168,0-5.436,2.412-5.436,5.724c0,3.743,2.771,5.651,5.723,5.651
		c3.132,0,5.436-2.484,5.436-2.484l1.908,3.168c0,0-2.736,3.312-7.739,3.312c-6.047,0-9.935-4.283-9.935-9.61
		C90.922,159.41,94.666,154.982,100.965,154.982z"/>
	<path style="fill:#FFFFFF;" d="M112.198,159.05h-2.375v-3.635h2.483v-5.004h4.463v5.004h4.176v3.635h-4.176v7.415
		c0,3.024,2.376,3.456,3.636,3.456c0.504,0,0.828-0.072,0.828-0.072v3.996c0,0-0.576,0.107-1.404,0.107
		c-2.556,0-7.631-0.756-7.631-6.911V159.05z"/>
	<path style="fill:#FFFFFF;" d="M133.365,154.982c5.615,0,10.079,3.996,10.079,9.611c0,5.651-4.463,9.61-10.079,9.61
		c-5.58,0-10.043-3.959-10.043-9.61C123.322,158.978,127.786,154.982,133.365,154.982z M133.365,170.316
		c2.987,0,5.471-2.303,5.471-5.723c0-3.384-2.484-5.724-5.471-5.724c-2.952,0-5.436,2.34-5.436,5.724
		C127.93,168.013,130.414,170.316,133.365,170.316z"/>
	<path style="fill:#FFFFFF;" d="M153.885,154.982c4.248,0,5.651,2.591,5.651,2.591h0.072c0,0,0-0.216,0-0.468
		c0-0.828,0.576-1.691,2.016-1.691h4.248v3.887h-1.404c-0.468,0-0.792,0.252-0.792,0.72v12.634c0,6.3-4.896,8.676-9.683,8.676
		c-2.304,0-4.751-0.648-6.516-1.584l1.404-3.6c0,0,2.268,1.224,5.075,1.224c2.771,0,5.183-1.188,5.183-4.499v-0.864
		c0-0.433,0.036-0.972,0.036-0.972h-0.072c-1.08,1.548-2.664,2.375-5.111,2.375c-5.255,0-8.243-4.247-8.243-9.286
		C145.75,159.086,148.594,154.982,153.885,154.982z M159.249,164.161c0-4.175-2.088-5.292-4.572-5.292
		c-2.771,0-4.283,2.016-4.283,5.111c0,3.204,1.62,5.579,4.571,5.579C157.161,169.56,159.249,168.3,159.249,164.161z"/>
	<path style="fill:#FFFFFF;" d="M169.619,160.094c0-0.54-0.288-0.792-0.792-0.792h-1.44v-3.887h4.175
		c1.62,0,2.448,0.684,2.448,2.231v1.08c0,0.684-0.072,1.151-0.072,1.151h0.072c0.828-2.627,3.024-4.715,5.832-4.715
		c0.396,0,0.828,0.072,0.828,0.072v4.5c0,0-0.468-0.072-1.116-0.072c-1.944,0-4.175,1.116-5.003,3.852
		c-0.252,0.9-0.396,1.908-0.396,2.988v7.271h-4.535V160.094z"/>
	<path style="fill:#FFFFFF;" d="M192.477,162.253h0.576v-0.144c0-2.627-1.044-3.6-3.384-3.6c-0.828,0-2.447,0.216-2.447,1.224v0.972
		h-4.248v-1.943c0-3.42,4.823-3.78,6.731-3.78c6.119,0,7.919,3.204,7.919,7.307v6.839c0,0.504,0.288,0.792,0.792,0.792h1.44v3.852
		h-4.104c-1.692,0-2.34-0.936-2.34-2.016c0-0.468,0.036-0.792,0.036-0.792h-0.072c0,0-1.404,3.239-5.543,3.239
		c-3.276,0-6.263-2.052-6.263-5.723C181.57,162.721,189.489,162.253,192.477,162.253z M188.949,170.64
		c2.448,0,4.175-2.592,4.175-4.823v-0.432h-0.792c-2.376,0-6.155,0.323-6.155,2.88C186.178,169.489,187.078,170.64,188.949,170.64z"
		/>
	<path style="fill:#FFFFFF;" d="M203.531,160.094c0-0.54-0.288-0.792-0.792-0.792h-1.44v-3.887h4.211
		c1.62,0,2.412,0.756,2.412,2.052v0.54c0,0.396-0.036,0.792-0.036,0.792h0.072c0.864-1.8,3.06-3.815,5.939-3.815
		c2.771,0,4.571,1.295,5.363,3.78h0.072c0.972-1.98,3.348-3.78,6.263-3.78c3.815,0,6.011,2.16,6.011,6.983v7.163
		c0,0.504,0.288,0.792,0.792,0.792h1.404v3.852h-4.319c-1.728,0-2.448-0.72-2.448-2.448v-8.494c0-2.088-0.396-3.672-2.52-3.672
		c-2.268,0-3.888,1.908-4.392,4.212c-0.216,0.72-0.288,1.476-0.288,2.339v8.063h-4.571V162.83c0-1.98-0.288-3.672-2.484-3.672
		c-2.304,0-3.852,1.908-4.427,4.248c-0.18,0.72-0.288,1.476-0.288,2.303v8.063h-4.535V160.094z"/>
	<path style="fill:#FFFFFF;" d="M246.586,162.253h0.576v-0.144c0-2.627-1.044-3.6-3.384-3.6c-0.828,0-2.447,0.216-2.447,1.224v0.972
		h-4.248v-1.943c0-3.42,4.823-3.78,6.731-3.78c6.119,0,7.919,3.204,7.919,7.307v6.839c0,0.504,0.288,0.792,0.792,0.792h1.44v3.852
		h-4.104c-1.692,0-2.34-0.936-2.34-2.016c0-0.468,0.036-0.792,0.036-0.792h-0.072c0,0-1.404,3.239-5.543,3.239
		c-3.276,0-6.263-2.052-6.263-5.723C235.679,162.721,243.598,162.253,246.586,162.253z M243.058,170.64
		c2.448,0,4.175-2.592,4.175-4.823v-0.432h-0.792c-2.376,0-6.155,0.323-6.155,2.88C240.287,169.489,241.187,170.64,243.058,170.64z"
		/>
	<path style="fill:#FFFFFF;" d="M257.711,167.941c0,0,2.34,2.699,5.471,2.699c1.404,0,2.484-0.576,2.484-1.8
		c0-2.591-9.683-2.556-9.683-8.495c0-3.671,3.312-5.363,7.127-5.363c2.483,0,6.443,0.828,6.443,3.815v1.908h-4.032v-0.9
		c0-0.864-1.296-1.296-2.304-1.296c-1.62,0-2.736,0.576-2.736,1.656c0,2.88,9.755,2.304,9.755,8.423c0,3.456-3.06,5.615-7.055,5.615
		c-5.039,0-7.631-3.275-7.631-3.275L257.711,167.941z"/>
</g>
</svg>
