<svg xmlns="http://www.w3.org/2000/svg" width="56.541" height="60.015" viewBox="-15.71 -6.862 56.541 60.015"><g opacity=".4"><path d="M30.74 24.885c.847 0 1.05.488.452 1.088l-9.203 9.2c-.6.6-1.576.6-2.176 0l-9.198-9.2c-.598-.6-.395-1.088.45-1.088h19.675z" fill="#CCC"/><path fill="none" stroke="#CCC" stroke-width="3.076" stroke-linecap="round" stroke-miterlimit="10" d="M20.903 7.073v21M34.674 42.346H7.137"/></g><path d="M30.74 23.346c.847 0 1.05.488.452 1.088l-9.203 9.2c-.6.6-1.576.6-2.176 0l-9.198-9.2c-.598-.6-.395-1.088.45-1.088h19.675z" fill="#FFF"/><path fill="none" stroke="#FFF" stroke-width="3.076" stroke-linecap="round" stroke-miterlimit="10" d="M20.903 5.535v21M34.674 40.808H7.137"/></svg>