<?xml version="1.0" encoding="iso-8859-1"?>
<!-- Generator: Adobe Illustrator 16.0.0, SVG Export Plug-In . SVG Version: 6.00 Build 0)  -->
<!DOCTYPE svg PUBLIC "-//W3C//DTD SVG 1.1//EN" "http://www.w3.org/Graphics/SVG/1.1/DTD/svg11.dtd">
<svg version="1.1" id="Camada_1" xmlns="http://www.w3.org/2000/svg" xmlns:xlink="http://www.w3.org/1999/xlink" x="0px" y="0px"
	 width="56.541px" height="60.015px" viewBox="-15.71 -6.862 56.541 60.015"
	 style="enable-background:new -15.71 -6.862 56.541 60.015;" xml:space="preserve">
<g>
	<g>
		<g style="opacity:0.4;">
			<path style="fill:#CCCCCC;" d="M30.741,24.885c0.846,0,1.049,0.488,0.451,1.088l-9.203,9.201c-0.598,0.598-1.575,0.598-2.175,0
				l-9.198-9.201c-0.598-0.6-0.395-1.088,0.451-1.088H30.741z"/>
			
				<line style="fill:none;stroke:#CCCCCC;stroke-width:3.0765;stroke-linecap:round;stroke-miterlimit:10;" x1="20.903" y1="7.073" x2="20.903" y2="28.073"/>
			
				<line style="fill:none;stroke:#CCCCCC;stroke-width:3.0765;stroke-linecap:round;stroke-miterlimit:10;" x1="34.674" y1="42.346" x2="7.137" y2="42.346"/>
		</g>
		<g>
			<g>
				<g>
					<g>
						<path style="fill:#FFFFFF;" d="M30.741,23.346c0.846,0,1.049,0.488,0.451,1.088l-9.203,9.201
							c-0.598,0.598-1.575,0.598-2.175,0l-9.198-9.201c-0.598-0.6-0.395-1.088,0.451-1.088H30.741z"/>
					</g>
					
						<line style="fill:none;stroke:#FFFFFF;stroke-width:3.0765;stroke-linecap:round;stroke-miterlimit:10;" x1="20.903" y1="5.535" x2="20.903" y2="26.534"/>
				</g>
				
					<line style="fill:none;stroke:#FFFFFF;stroke-width:3.0765;stroke-linecap:round;stroke-miterlimit:10;" x1="34.674" y1="40.808" x2="7.137" y2="40.808"/>
			</g>
		</g>
	</g>
</g>
</svg>
