<?xml version="1.0" encoding="utf-8"?>
<!-- Generator: Adobe Illustrator 16.0.0, SVG Export Plug-In . SVG Version: 6.00 Build 0)  -->
<!DOCTYPE svg PUBLIC "-//W3C//DTD SVG 1.1//EN" "http://www.w3.org/Graphics/SVG/1.1/DTD/svg11.dtd">
<svg version="1.1" id="Camada_1" xmlns="http://www.w3.org/2000/svg" xmlns:xlink="http://www.w3.org/1999/xlink" x="0px" y="0px"
	 width="60.691px" height="60.693px" viewBox="0 0 60.691 60.693" enable-background="new 0 0 60.691 60.693" xml:space="preserve">
<g>
	<g>
		<g>
			<path fill="#FFFFFF" d="M58.693,54.884c0,2.096-1.715,3.811-3.811,3.811H5.808c-2.096,0-3.811-1.715-3.811-3.811V5.808
				c0-2.096,1.715-3.81,3.811-3.81h49.074c2.096,0,3.811,1.714,3.811,3.81V54.884z"/>
			<path fill="none" stroke="#646464" stroke-width="4" stroke-miterlimit="10" d="M58.693,54.884c0,2.096-1.715,3.811-3.811,3.811
				H5.808c-2.096,0-3.811-1.715-3.811-3.811V5.808c0-2.096,1.715-3.81,3.811-3.81h49.074c2.096,0,3.811,1.714,3.811,3.81V54.884z"/>
		</g>
		<path fill="#646464" stroke="#232323" stroke-linejoin="round" stroke-miterlimit="10" d="M39.721,51.456
			c0.034,0.042,0.074,0.081,0.122,0.115c0.079,0.061,0.18,0.106,0.27,0.087c0.064-0.014,0.121-0.058,0.165-0.104
			c0.007,0.005,0.014,0.008,0.021,0.013c0.104,0.056,0.26,0.024,0.363-0.052c0.067-0.051,0.112-0.122,0.142-0.197
			c0.06,0.052,0.131,0.093,0.211,0.11c0.058,0.012,0.119,0.014,0.168-0.013c0.08-0.041,0.119-0.158,0.125-0.252
			c0.061,0.113,0.123,0.216,0.216,0.225c0.079,0.006,0.182-0.058,0.249-0.134c0.06-0.07,0.089-0.149,0.103-0.234
			c0.011,0.018,0.022,0.034,0.035,0.051c0.097,0.127,0.268,0.226,0.416,0.201c0.172-0.027,0.313-0.218,0.335-0.415
			c0.011-0.086-0.002-0.173-0.041-0.228c-0.093-0.137-0.348-0.087-0.549-0.122c-0.234-0.043-0.396-0.202-0.55-0.362
			c-0.161-0.166-0.317-0.33-0.458-0.51c-0.133-0.174-0.252-0.361-0.358-0.553c0.029-0.078,0.017-0.207,0.004-0.326
			c-0.047-0.444-0.073-0.737-0.082-1.062c-0.013-0.524,0.021-1.135,0-1.72c-0.021-0.58-0.096-1.135-0.122-1.698
			c-0.027-0.573-0.006-1.155-0.041-1.737c-0.038-0.639-0.146-1.278-0.062-1.904c0.043-0.315,0.137-0.627,0.21-0.942
			c0.219-0.302,0.427-0.612,0.607-0.938c0.523-0.938,0.816-1.986,1.166-3.008c0.239-0.693,0.506-1.375,0.748-2.067
			c0.023-0.019,0.045-0.039,0.066-0.059c0.469-0.46,0.487-1.244,0.492-1.944c0.003-0.429,0.001-0.826,0.06-1.228
			c0.039-0.25,0.1-0.501,0.124-0.757c0.041-0.436-0.027-0.881,0.041-1.309c0.041-0.262,0.133-0.518,0.205-0.777
			c0.114-0.422,0.168-0.856,0.225-1.288c0.098-0.753,0.204-1.505,0.347-2.25c0.095-0.494,0.206-0.985,0.327-1.473
			c0.173,0.209,0.338,0.425,0.513,0.634c0.462,0.558,0.992,1.081,1.289,1.74c0.276,0.615,0.35,1.349,0.695,1.901
			c0.401,0.645,1.176,1.044,1.554,1.78c0.176,0.341,0.267,0.756,0.532,0.961c0.216,0.165,0.545,0.193,0.866,0.166
			c0.012,0.125-0.013,0.27-0.089,0.366c-0.033,0.042-0.077,0.075-0.121,0.112c-0.136,0.113-0.275,0.268-0.277,0.426
			c0,0.113,0.071,0.227,0.08,0.356c0.007,0.079-0.013,0.164,0.023,0.225c0.035,0.059,0.12,0.094,0.191,0.107
			c0.031-0.035,0.061-0.078,0.071-0.121c0.02-0.084-0.02-0.172-0.029-0.263c-0.021-0.207,0.106-0.424,0.286-0.524
			c0.177-0.099,0.403-0.084,0.585-0.005c0.072,0.031,0.138,0.072,0.196,0.121c0.003,0.212-0.028,0.463-0.153,0.618
			c-0.097,0.118-0.247,0.18-0.333,0.351c-0.063,0.127-0.092,0.314-0.004,0.356c0.05,0.024,0.142,0,0.206-0.025
			c-0.008,0.054-0.001,0.101,0.026,0.123c0.057,0.044,0.199-0.006,0.283-0.05c-0.036,0.064-0.062,0.137-0.044,0.178
			c0.038,0.086,0.272,0.038,0.396-0.007c-0.04,0.033-0.071,0.071-0.082,0.1c-0.051,0.142,0.415,0.064,0.684-0.08
			c0.24-0.128,0.324-0.31,0.342-0.51c0.017-0.188-0.024-0.389-0.099-0.566c-0.053-0.125-0.121-0.236-0.14-0.378
			c-0.013-0.092-0.003-0.196-0.107-0.431c0.109-0.049-0.182-0.667-0.372-1.124c-0.165-0.396-0.253-0.669-0.388-0.941
			c-0.397-0.792-1.203-1.57-1.637-2.475c-0.175-0.36-0.288-0.74-0.471-1.084c-0.304-0.569-0.796-1.036-1.166-1.575
			c-0.412-0.598-0.673-1.285-0.981-1.943c-0.243-0.516-0.517-1.013-0.86-1.473c-0.44-0.59-0.996-1.118-1.656-1.432
			c-0.217-0.103-0.444-0.184-0.676-0.246c-0.144-0.065-0.281-0.14-0.415-0.223c-0.055-0.035-0.108-0.07-0.161-0.108
			c0.139-0.182,0.311-0.334,0.433-0.518c0.191-0.287,0.26-0.648,0.37-0.989c0.121-0.377,0.293-0.729,0.37-1.109
			c0.039-0.203,0.052-0.413,0.054-0.62c0.005-0.277,0.035-0.555,0.091-0.827c0.022-0.111,0.049-0.22,0.08-0.329
			c0.006,0.01,0.013,0.02,0.02,0.029c0.165,0.242,0.302,0.506,0.359,0.793c0.077,0.389,0.01,0.82-0.239,1.152
			c-0.12,0.161-0.283,0.298-0.271,0.5c0.006,0.104,0.059,0.224,0.13,0.261c0.12,0.062,0.298-0.109,0.402-0.271
			c0.17-0.265,0.148-0.511,0.207-0.761c0.103-0.444,0.453-0.9,0.413-1.338c-0.022-0.242-0.166-0.479-0.295-0.717
			c-0.142-0.263-0.267-0.526-0.488-0.707c-0.229-0.186-0.562-0.281-0.739-0.5c-0.132-0.162-0.178-0.391-0.261-0.609
			c-0.149-0.394-0.42-0.751-0.859-0.837c-0.17-0.033-0.365-0.025-0.456,0.087c-0.066,0.082-0.076,0.221-0.065,0.333
			c-0.041-0.035-0.084-0.07-0.127-0.106c-0.186-0.155-0.372-0.322-0.598-0.413c-0.293-0.118-0.649-0.105-0.946,0.011
			c-0.384,0.152-0.662,0.483-0.923,0.816c-0.156,0.198-0.307,0.398-0.402,0.619c-0.189,0.435-0.173,0.952-0.392,1.402
			c-0.167,0.344-0.471,0.647-0.478,1c-0.005,0.231,0.118,0.484,0.259,0.683c0.01,0.046,0.021,0.094,0.034,0.143
			c0.047,0.176,0.117,0.371,0.251,0.5c0.164,0.162,0.428,0.223,0.661,0.222c0,0.004,0.001,0.008,0.001,0.012
			c0.041,0.244,0.014,0.498,0.056,0.739c0.024,0.146,0.075,0.287,0.142,0.422c-0.093,0.046-0.186,0.091-0.278,0.136
			c-0.376,0.272-0.81,0.519-1.269,0.573c-0.399,0.046-0.819-0.052-1.207,0.02c-0.31,0.058-0.598,0.225-0.879,0.389
			c-0.463,0.27-0.909,0.534-1.371,0.777c-0.502,0.266-1.022,0.508-1.514,0.797c-0.332,0.196-0.649,0.414-1.003,0.573
			c-0.492,0.224-1.053,0.337-1.474,0.656c-0.213,0.162-0.391,0.379-0.571,0.593c-0.291,0.344-0.593,0.679-0.798,1.063
			c-0.341,0.636-0.424,1.407-0.471,2.149c-0.003,0.048-0.007,0.096-0.008,0.146c-0.246,0.183-0.48,0.408-0.606,0.692
			c-0.084,0.194-0.118,0.416-0.204,0.593c-0.084,0.175-0.218,0.308-0.348,0.512c-0.021,0.034-0.044,0.071-0.062,0.106
			c-0.131-0.074-0.263-0.145-0.397-0.209c-0.171-0.085-0.347-0.161-0.526-0.23c-0.008-0.011-0.017-0.021-0.025-0.031
			c-0.163-0.174-0.421-0.217-0.665-0.271c-0.403-0.091-0.771-0.217-1.118-0.402c-0.397-0.213-0.768-0.505-1.077-0.838
			c0.25-0.708,0.558-1.403,0.751-2.107c0.102-0.367,0.171-0.736,0.234-1.142c0.048-0.29,0.09-0.6-0.014-0.834
			c-0.138-0.313-0.533-0.497-0.862-0.699c-0.231-0.142-0.428-0.292-0.649-0.424c-0.051-0.04-0.1-0.081-0.148-0.121
			c0.046-0.025,0.092-0.052,0.137-0.08c0.272-0.165,0.54-0.351,0.704-0.608c0.11-0.172,0.174-0.375,0.247-0.571
			c0.086-0.233,0.186-0.456,0.272-0.686c0.063-0.148,0.125-0.297,0.182-0.447c0.136-0.354,0.245-0.711,0.381-1.077
			c0.159-0.425,0.354-0.861,0.315-1.292c-0.019-0.206-0.09-0.41-0.165-0.613c-0.211-0.563-0.453-1.108-0.829-1.558
			c-0.18-0.216-0.391-0.41-0.614-0.582c-0.143-0.117-0.304-0.221-0.477-0.286c-0.259-0.1-0.546-0.114-0.826-0.131
			c-0.411-0.025-0.813-0.052-1.229-0.043c-0.27,0.006-0.544,0.028-0.782,0.13c-0.265,0.114-0.483,0.328-0.707,0.521
			c-0.21,0.183-0.425,0.349-0.63,0.534c-0.352,0.314-0.68,0.682-0.838,1.13c-0.159,0.454-0.145,0.991,0.055,1.424
			c0.032,0.069,0.068,0.137,0.098,0.207c0.061,0.144,0.088,0.301,0.098,0.457c-0.088,0.141-0.015,0.313-0.007,0.485
			c0.007,0.165-0.047,0.329-0.008,0.464c0.049,0.168,0.239,0.291,0.371,0.441c0.078,0.09,0.134,0.188,0.229,0.25
			c0.008,0.113,0.032,0.239,0.107,0.321c0.076,0.085,0.208,0.124,0.278,0.208c0.078,0.094,0.078,0.244,0.07,0.385
			c-0.012,0.219-0.043,0.413-0.129,0.598c-0.052-0.145-0.081-0.302-0.096-0.456c-0.098,0.143-0.212,0.279-0.347,0.385
			c-0.282,0.221-0.651,0.305-1,0.423c-0.471,0.16-0.906,0.383-1.31,0.655c-0.399,0.269-0.769,0.586-1.115,0.924
			c-1.063,1.033-1.907,2.262-2.771,3.464c-0.282,0.391-0.565,0.779-0.84,1.174c-0.245,0.098-0.482,0.218-0.7,0.366
			c-0.723,0.49-1.23,1.284-1.54,2.117c-0.344,0.924-0.442,1.898-0.813,2.787c-0.124,0.299-0.278,0.586-0.437,0.869
			c-0.272,0.212-0.508,0.464-0.702,0.763c-0.327,0.495-0.543,1.113-0.44,1.672c0.052,0.285,0.187,0.554,0.325,0.819
			c0.072,0.137,0.146,0.273,0.3,0.344c0.176,0.079,0.456,0.073,0.518,0c0.092-0.107-0.289-0.36-0.481-0.592
			c-0.127-0.148-0.175-0.289-0.229-0.439c-0.045-0.12-0.096-0.246-0.141-0.373c0.132,0.137,0.281,0.222,0.448,0.347
			c0.207,0.154,0.444,0.367,0.661,0.229c0.065-0.041,0.13-0.115,0.132-0.166c0.003-0.092-0.19-0.108-0.344-0.159
			c-0.251-0.084-0.386-0.258-0.423-0.458c-0.043-0.238,0.058-0.513,0.221-0.713c0.114-0.143,0.261-0.245,0.42-0.318
			c-0.045,0.16-0.158,0.299-0.235,0.45c-0.068,0.138-0.109,0.288-0.088,0.449c0.029,0.217,0.168,0.454,0.396,0.467
			c0.072,0.004,0.153-0.016,0.185-0.062c0.046-0.068-0.017-0.193,0-0.281c0.021-0.116,0.173-0.167,0.273-0.248
			c0.088-0.07,0.136-0.165,0.193-0.254c0.122-0.19,0.28-0.357,0.427-0.531c0.064-0.255,0.146-0.506,0.25-0.749
			c0.215-0.507,0.522-0.974,0.872-1.403c0.431-0.526,0.925-0.994,1.341-1.528c0.341-0.436,0.629-0.916,0.896-1.402
			c0.076-0.051,0.152-0.103,0.228-0.156c0.482-0.341,0.929-0.731,1.371-1.123c0.028,0.646-0.018,1.301-0.155,1.933
			c-0.104,0.479-0.262,0.945-0.437,1.403c-0.292,0.762-0.635,1.5-0.967,2.245c-0.22,0.494-0.435,0.989-0.654,1.481
			c-0.034,0.111-0.07,0.224-0.107,0.336c-0.112,0.344-0.232,0.682-0.375,1.02c-0.095,0.226-0.2,0.45-0.242,0.685
			c-0.062,0.347,0.012,0.715,0.081,1.074c0.102,0.526,0.191,1.036,0.335,1.541c0.067,0.237,0.147,0.476,0.206,0.716
			c0.07,0.284,0.113,0.57,0.174,0.86c0.065,0.305,0.15,0.612,0.109,0.912c-0.025,0.193-0.104,0.384-0.137,0.578
			c-0.022,0-0.044,0-0.066,0c-0.103,0.001-0.225,0.006-0.297,0.066c-0.063,0.056-0.086,0.153-0.119,0.242
			c-0.055,0.143-0.134,0.258-0.215,0.375c-0.143,0.207-0.293,0.424-0.376,0.658c-0.006,0.018-0.012,0.034-0.018,0.052
			c-0.176-0.085-0.377-0.139-0.573-0.129c-0.19,0.009-0.375,0.075-0.546,0.166c-0.188,0.098-0.361,0.226-0.498,0.382
			c-0.164,0.186-0.277,0.413-0.381,0.645c-0.162,0.364-0.298,0.739-0.513,1.062c-0.156,0.231-0.351,0.437-0.531,0.663
			c-0.242,0.303-0.454,0.645-0.563,0.993c-0.056,0.183-0.084,0.366-0.132,0.58c-0.032,0.143-0.075,0.299,0,0.398
			c0.042,0.058,0.124,0.095,0.198,0.116c-0.037,0.093-0.066,0.19-0.037,0.283c0.025,0.076,0.091,0.147,0.168,0.166
			c0.039,0.01,0.082,0.006,0.121-0.005c0.009,0.078,0.085,0.164,0.167,0.195c0.034,0.015,0.069,0.018,0.104,0.018
			c0.004,0.063,0.027,0.124,0.052,0.19c0.03,0.085,0.062,0.178,0.127,0.209c0.068,0.03,0.176-0.004,0.249-0.048
			c0.012,0.072,0.041,0.141,0.08,0.209c0.047,0.081,0.108,0.161,0.186,0.19c0.136,0.052,0.322-0.057,0.428-0.19
			c0.134-0.17,0.133-0.38,0.196-0.565c0.066-0.197,0.202-0.369,0.306-0.555c0.143-0.255,0.223-0.538,0.347-0.798
			c0.107-0.224,0.249-0.432,0.388-0.641c0.112-0.171,0.224-0.34,0.329-0.515c0.076-0.125,0.149-0.252,0.221-0.381
			c0.092,0.114,0.209,0.207,0.354,0.261c0.155,0.059,0.342,0.07,0.442,0.161c0.127,0.115,0.121,0.354,0.175,0.565
			c0.029,0.115,0.076,0.223,0.161,0.281c0.076,0.052,0.184,0.063,0.281,0.093c0.095,0.027,0.18,0.073,0.269,0.095
			c0.261,0.064,0.548-0.061,0.818-0.161c0.206-0.077,0.403-0.137,0.591-0.229c0.188-0.091,0.363-0.21,0.55-0.308
			c0.297-0.156,0.617-0.256,0.941-0.334c-0.119,0.097-0.236,0.192-0.329,0.305c-0.294,0.351-0.369,0.858-0.438,1.34
			c-0.039,0.287-0.078,0.563-0.188,0.813c-0.105,0.242-0.281,0.459-0.437,0.684c-0.178,0.262-0.329,0.534-0.467,0.811
			c-0.102,0.204-0.194,0.411-0.28,0.624c-0.104,0.259-0.2,0.527-0.344,0.749c-0.175,0.269-0.42,0.468-0.592,0.811
			c-0.119,0.236-0.201,0.543-0.094,0.686c0.114,0.152,0.442,0.122,0.717,0.157c0.456,0.055,0.762,0.283,1.123,0.467
			c0.331,0.168,0.707,0.3,1.061,0.342c0.246,0.031,0.481,0.02,0.778,0c0.305-0.018,0.672-0.042,0.749-0.28
			c0.029-0.093,0.015-0.218-0.032-0.311c-0.128-0.258-0.495-0.263-0.779-0.375c-0.441-0.176-0.681-0.608-0.903-0.998
			c-0.056-0.068-0.109-0.162-0.098-0.244c0.017-0.105,0.139-0.188,0.242-0.234c0.02,0.021,0.038,0.042,0.057,0.063
			c0.133,0.153,0.24,0.339,0.376,0.469c0.267,0.259,0.645,0.308,1.007,0.619c0.133,0.114,0.265,0.264,0.362,0.241
			c0.093-0.021,0.154-0.195,0.215-0.351c0.147-0.381,0.273-0.642,0.415-0.925c0.207-0.412,0.447-0.868,0.645-1.329
			c0.287-0.669,0.485-1.345,0.778-1.999c0.19-0.426,0.421-0.841,0.523-1.288c0.083-0.358,0.086-0.736,0.147-1.102
			c0.098-0.569,0.341-1.106,0.432-1.677c0.033-0.202,0.046-0.41,0.056-0.615c0.008-0.019,0.017-0.036,0.024-0.054
			c0.056-0.151,0.027-0.329,0.044-0.494c0.042-0.432,0.4-0.774,0.552-1.179c0.121-0.324,0.111-0.688,0.134-1.034
			c0.078-1.13,0.526-2.084,0.859-3.287c0.127-0.456,0.237-0.948,0-1.288c-0.157-0.227-0.469-0.387-0.563-0.646
			c-0.057-0.154-0.037-0.344,0-0.51c0.07-0.29,0.08-0.607,0-0.898c-0.063-0.229-0.181-0.441-0.327-0.625
			c0.132-0.399,0.184-0.823,0.264-1.238c0.13-0.668,0.334-1.315,0.551-1.959c0.28-0.837,0.58-1.667,0.816-2.518
			c0.011-0.04,0.022-0.08,0.033-0.12c0.204,0.052,0.408,0.103,0.611,0.167c0.273,0.087,0.544,0.198,0.815,0.261
			c0.289,0.067,0.58,0.079,0.891,0.207c0.273,0.112,0.563,0.316,0.761,0.261c0.024-0.007,0.047-0.018,0.07-0.032
			c0.228,0.008,0.464,0.06,0.659,0.177c0.101,0.061,0.189,0.137,0.28,0.211c0.052,0.041,0.104,0.081,0.154,0.121
			c0.003,0.067,0.021,0.139,0.063,0.183c0.063,0.071,0.181,0.071,0.296,0.034c-0.008,0.053-0.008,0.108,0.007,0.162
			c0.024,0.088,0.088,0.177,0.164,0.207c0.079,0.031,0.173,0.001,0.259-0.056c-0.005,0.1,0.009,0.243,0.077,0.292
			c0.078,0.055,0.227-0.016,0.335-0.094c0.019-0.012,0.034-0.025,0.05-0.038c-0.008,0.105,0.011,0.252,0.092,0.302
			c0.061,0.036,0.151,0.021,0.229-0.007c0.108-0.041,0.185-0.108,0.271-0.171c0.024-0.018,0.049-0.035,0.073-0.052
			c0.121,0.04,0.25,0.062,0.376,0.052c0.162-0.013,0.316-0.076,0.464-0.143c0.139-0.063,0.271-0.127,0.35-0.292
			c0.027-0.058,0.049-0.127,0.029-0.157c-0.001,0-0.002-0.001-0.002-0.001c0.075-0.026,0.158-0.077,0.187-0.148
			c0.03-0.073,0.004-0.166-0.05-0.235c-0.081-0.104-0.228-0.152-0.342-0.122c-0.092,0.024-0.165,0.098-0.243,0.157
			c-0.086,0.064-0.178,0.112-0.268,0.168c0.035-0.105,0.079-0.205,0.125-0.303c0.038-0.08,0.077-0.159,0.107-0.243
			c0.015-0.041,0.025-0.083,0.037-0.124c0.037,0.012,0.076,0.023,0.115,0.034c0.109,0.033,0.227,0.066,0.285,0.041
			c0.121-0.051-0.01-0.35-0.06-0.593c-0.073-0.342,0.01-0.574,0.04-0.838c0.031-0.271,0.007-0.576,0.061-0.86
			c0.046-0.238,0.148-0.463,0.267-0.674c0.194-0.346,0.435-0.655,0.634-1.003c0.132-0.229,0.246-0.477,0.43-0.654
			c0.146-0.14,0.334-0.237,0.512-0.348c0.379-0.237,0.704-0.54,1.084-0.756c0.194-0.111,0.404-0.198,0.613-0.286
			c0.294-0.123,0.592-0.245,0.856-0.416c0.313-0.051,0.633,0.278,0.965,0.293c0.002,0,0.004,0,0.005,0
			c0.045,0.197,0.083,0.395,0.117,0.593c0.117,0.675,0.194,1.366,0.144,2.045c-0.059,0.784-0.283,1.554-0.491,2.312
			c-0.229,0.837-0.437,1.659-0.695,2.517c-0.089,0.294-0.184,0.593-0.163,0.879c0.026,0.396,0.271,0.77,0.388,1.167
			c0.084,0.28,0.104,0.571,0.123,0.859c0.017,0.575,0.082,1.158,0.222,1.713c0.236,0.938,0.686,1.798,1.153,2.683
			c0.193,0.363,0.391,0.732,0.437,1.122c0.04,0.333-0.031,0.684-0.093,1.028c-0.057,0.313-0.105,0.624-0.147,0.934
			c-0.237,0.158-0.459,0.345-0.646,0.561c-0.326,0.367-0.553,0.82-0.717,1.288c-0.042,0.118-0.08,0.239-0.111,0.359
			c-0.257,0.171-0.475,0.4-0.646,0.663c-0.078,0.122-0.147,0.252-0.184,0.389c-0.057,0.229-0.02,0.475-0.02,0.715
			c-0.002,0.307-0.065,0.603-0.103,0.9c-0.054,0.434-0.054,0.868-0.081,1.31c-0.019,0.271-0.046,0.541-0.083,0.798
			c-0.067,0.468-0.163,0.886,0.123,1.453c0.146,0.286,0.388,0.612,0.531,0.511c0.066-0.047,0.112-0.183,0.144-0.308
			c0.011-0.042,0.021-0.083,0.029-0.122c0.048,0.091,0.116,0.163,0.218,0.222c0.054,0.029,0.117,0.055,0.159,0.04
			c0.061-0.021,0.077-0.127,0.075-0.223c0.09,0.073,0.244,0.163,0.327,0.115c0.063-0.034,0.084-0.145,0.088-0.242
			c0.004-0.059,0-0.112-0.006-0.165c0.056-0.035,0.105-0.079,0.151-0.13c0.069-0.075,0.134-0.164,0.142-0.259
			c0.003-0.047-0.008-0.096-0.026-0.144c0.075-0.032,0.146-0.084,0.189-0.154c0.052-0.085,0.057-0.195,0.037-0.295
			c-0.039-0.198-0.179-0.356-0.232-0.542c-0.026-0.088-0.033-0.18-0.04-0.272c-0.02-0.296-0.039-0.586-0.059-0.878
			c-0.006-0.098-0.013-0.195-0.015-0.293c0-0.034,0-0.069,0-0.105c-0.007-0.083-0.004-0.171,0.021-0.249
			c0.065-0.195,0.263-0.342,0.454-0.412c0.041,0.624,0.134,1.234,0.307,1.817c0.228,0.771,0.593,1.491,0.695,2.353
			c0.07,0.587,0.02,1.238,0.491,1.597c0.024,0.02,0.052,0.037,0.079,0.054c-0.031,0.118-0.055,0.247-0.037,0.366
			c0.034,0.222,0.208,0.417,0.267,0.625c0.035,0.129,0.026,0.263,0.074,0.415c0.063,0.202,0.227,0.436,0.393,0.399
			C39.607,51.563,39.673,51.51,39.721,51.456z"/>
	</g>
</g>
</svg>
