<?xml version="1.0" encoding="utf-8"?>
<!-- Generator: Adobe Illustrator 16.0.0, SVG Export Plug-In . SVG Version: 6.00 Build 0)  -->
<!DOCTYPE svg PUBLIC "-//W3C//DTD SVG 1.1//EN" "http://www.w3.org/Graphics/SVG/1.1/DTD/svg11.dtd">
<svg version="1.1" id="Camada_1" xmlns="http://www.w3.org/2000/svg" xmlns:xlink="http://www.w3.org/1999/xlink" x="0px" y="0px"
	 width="60.693px" height="60.693px" viewBox="0 0 60.693 60.693" enable-background="new 0 0 60.693 60.693" xml:space="preserve">
<g>
	<g>
		<g>
			<path fill="#FFFFFF" d="M58.692,55.516c0,1.748-1.428,3.176-3.176,3.176H5.176c-1.747,0-3.177-1.428-3.177-3.176V5.177
				C1.999,3.429,3.428,2,5.176,2h50.343c1.748,0,3.176,1.432,3.176,3.177L58.692,55.516L58.692,55.516z"/>
			<path fill="none" stroke="#646464" stroke-width="4" stroke-miterlimit="10" d="M58.692,55.516c0,1.748-1.428,3.176-3.176,3.176
				H5.176c-1.747,0-3.177-1.428-3.177-3.176V5.177C1.999,3.429,3.428,2,5.176,2h50.343c1.748,0,3.176,1.432,3.176,3.177
				L58.692,55.516L58.692,55.516z"/>
		</g>
		<g>
			<path fill="#646464" d="M19.402,22.743h-1.817v-3.102h8.58c3.577,0,6.148,1.844,6.148,5.112c0,2.209-1.202,3.634-2.404,4.249
				v0.057c2.154,0.643,3.188,2.655,3.188,4.666c0,3.969-3.16,5.759-6.848,5.759h-4.947c-1.313,0-1.9-0.56-1.9-1.9V22.743z
				 M26.193,27.745c1.537,0,2.404-1.118,2.404-2.543c0-1.424-0.838-2.459-2.461-2.459h-3.073v5.002H26.193z M23.677,36.382h2.85
				c1.789,0,2.794-1.202,2.794-2.877c0-1.648-1.033-2.851-2.794-2.851h-3.465v5.112C23.063,36.158,23.286,36.382,23.677,36.382z"/>
		</g>
	</g>
</g>
<g>
	<path fill="#646464" stroke="#646464" stroke-width="0.5" stroke-miterlimit="10" d="M35.435,25.806
		c0-0.345-0.184-0.506-0.506-0.506H34.01v-2.483h2.782c1.08,0,1.563,0.482,1.563,1.563v11.796c0,0.322,0.184,0.506,0.506,0.506
		h0.896v2.461H37c-1.104,0-1.564-0.46-1.564-1.563V25.806z"/>
</g>
</svg>
