<?xml version="1.0" encoding="utf-8"?>
<!-- Generator: Adobe Illustrator 16.0.0, SVG Export Plug-In . SVG Version: 6.00 Build 0)  -->
<!DOCTYPE svg PUBLIC "-//W3C//DTD SVG 1.1//EN" "http://www.w3.org/Graphics/SVG/1.1/DTD/svg11.dtd">
<svg version="1.1" id="Camada_1" xmlns="http://www.w3.org/2000/svg" xmlns:xlink="http://www.w3.org/1999/xlink" x="0px" y="0px"
	 width="162.568px" height="11.129px" viewBox="0 0 162.568 11.129" enable-background="new 0 0 162.568 11.129"
	 xml:space="preserve">
<g>
	<path fill="#FFFFFF" d="M0.976,1.845H0V0.18h6.435c0.705,0,1.021,0.315,1.021,1.02v1.62H5.67V2.175c0-0.21-0.12-0.33-0.33-0.33
		H2.94v2.79H6.39V6.3H2.94v2.535c0,0.21,0.12,0.33,0.33,0.33h2.46c0.21,0,0.329-0.12,0.329-0.33V8.189h1.785V9.81
		c0,0.72-0.314,1.02-1.02,1.02h-4.83c-0.72,0-1.02-0.3-1.02-1.02V1.845z"/>
	<path fill="#FFFFFF" d="M9.75,7.98c0,0,1.095,1.26,2.58,1.26c0.81,0,1.53-0.436,1.53-1.26c0-1.815-5.01-1.665-5.01-4.98
		c0-1.725,1.499-3,3.555-3c1.245,0,3.165,0.585,3.165,2.1v0.99H13.8V2.61c0-0.495-0.705-0.825-1.41-0.825
		c-0.899,0-1.56,0.465-1.56,1.14c0,1.815,5.01,1.455,5.01,4.95c0,1.695-1.305,3.135-3.54,3.135c-2.354,0-3.659-1.649-3.659-1.649
		L9.75,7.98z"/>
	<path fill="#FFFFFF" d="M20.311,1.845h-1.635c-0.21,0-0.33,0.12-0.33,0.33V2.82H16.62V1.14c0-0.705,0.24-0.96,0.96-0.96h7.425
		c0.721,0,0.96,0.255,0.96,0.96v1.68H24.24V2.175c0-0.21-0.12-0.33-0.33-0.33h-1.635v8.985h-1.965V1.845z"/>
	<path fill="#FFFFFF" d="M31.86,0c3.135,0,5.505,2.385,5.505,5.43c0,3.134-2.37,5.58-5.505,5.58s-5.505-2.445-5.505-5.58
		C26.355,2.385,28.726,0,31.86,0z M31.86,9.179c1.92,0,3.465-1.619,3.465-3.75c0-2.04-1.545-3.6-3.465-3.6s-3.465,1.56-3.465,3.6
		C28.396,7.56,29.94,9.179,31.86,9.179z"/>
	<path fill="#FFFFFF" d="M43.755,0.015c3.15,0,5.521,2.37,5.521,5.43c0,1.26-0.466,2.43-1.17,3.359l1.154,1.051l-1.17,1.274
		l-1.154-1.14c-0.9,0.689-1.995,1.02-3.181,1.02c-3.119,0-5.489-2.459-5.489-5.564C38.266,2.385,40.636,0.015,43.755,0.015z
		 M43.755,9.179c1.125,0,1.755-0.51,1.755-0.51l-1.08-1.005l1.155-1.275l1.08,1.081c0.36-0.57,0.57-1.275,0.57-2.025
		c0-2.055-1.53-3.6-3.48-3.6c-1.92,0-3.449,1.545-3.449,3.6C40.306,7.56,41.835,9.179,43.755,9.179z"/>
	<path fill="#FFFFFF" d="M51.091,2.175c0-0.21-0.12-0.33-0.33-0.33h-0.646V0.18h1.92c0.721,0,1.021,0.315,1.021,1.02v5.774
		c0,1.396,0.885,2.205,2.22,2.205s2.22-0.81,2.22-2.219V1.2c0-0.705,0.3-1.02,1.021-1.02h1.92v1.665H59.79
		c-0.21,0-0.33,0.12-0.33,0.33v4.86c0,2.355-1.665,3.975-4.17,3.975c-2.534,0-4.199-1.619-4.199-3.975V2.175z"/>
	<path fill="#FFFFFF" d="M62.311,1.845h-0.976V0.18h6.435c0.705,0,1.021,0.315,1.021,1.02v1.62h-1.785V2.175
		c0-0.21-0.12-0.33-0.33-0.33h-2.399v2.79h3.449V6.3h-3.449v2.535c0,0.21,0.12,0.33,0.33,0.33h2.459c0.211,0,0.33-0.12,0.33-0.33
		V8.189h1.785V9.81c0,0.72-0.314,1.02-1.02,1.02h-4.83c-0.72,0-1.02-0.3-1.02-1.02V1.845z"/>
	<path fill="#FFFFFF" d="M74.955,1.845h-0.976V0.18h4.335c3.285,0,5.43,1.95,5.43,5.31c0,3.359-2.145,5.34-5.43,5.34h-2.34
		c-0.72,0-1.02-0.3-1.02-1.02V1.845z M77.25,9.165h0.96c2.13,0,3.494-1.274,3.494-3.675c0-2.37-1.395-3.645-3.494-3.645h-1.29v6.99
		C76.92,9.044,77.04,9.165,77.25,9.165z"/>
	<path fill="#FFFFFF" d="M85.68,1.845h-0.976V0.18h6.435c0.705,0,1.021,0.315,1.021,1.02v1.62h-1.785V2.175
		c0-0.21-0.12-0.33-0.33-0.33h-2.399v2.79h3.449V6.3h-3.449v2.535c0,0.21,0.12,0.33,0.33,0.33h2.459c0.211,0,0.33-0.12,0.33-0.33
		V8.189h1.785V9.81c0,0.72-0.314,1.02-1.02,1.02h-4.83c-0.72,0-1.02-0.3-1.02-1.02V1.845z"/>
	<path fill="#FFFFFF" d="M97.395,2.175c-0.091-0.255-0.21-0.33-0.466-0.33h-0.27V0.18h1.245c0.75,0,1.02,0.195,1.26,0.87l2.04,5.94
		c0.21,0.6,0.405,1.561,0.405,1.561h0.029c0,0,0.195-0.961,0.405-1.561l2.04-5.94c0.24-0.675,0.495-0.87,1.245-0.87h1.26v1.665
		h-0.285c-0.255,0-0.375,0.075-0.465,0.33l-3.18,8.655h-2.07L97.395,2.175z"/>
	<path fill="#FFFFFF" d="M108.239,1.845h-0.976V0.18h6.435c0.705,0,1.021,0.315,1.021,1.02v1.62h-1.785V2.175
		c0-0.21-0.12-0.33-0.33-0.33h-2.399v2.79h3.449V6.3h-3.449v2.535c0,0.21,0.12,0.33,0.33,0.33h2.46c0.21,0,0.329-0.12,0.329-0.33
		V8.189h1.785V9.81c0,0.72-0.314,1.02-1.02,1.02h-4.83c-0.72,0-1.02-0.3-1.02-1.02V1.845z"/>
	<path fill="#FFFFFF" d="M119.234,1.845H117.6c-0.21,0-0.33,0.12-0.33,0.33V2.82h-1.726V1.14c0-0.705,0.24-0.96,0.96-0.96h7.425
		c0.721,0,0.96,0.255,0.96,0.96v1.68h-1.725V2.175c0-0.21-0.12-0.33-0.33-0.33h-1.635v8.985h-1.965V1.845z"/>
	<path fill="#FFFFFF" d="M130.784,0c3.135,0,5.505,2.385,5.505,5.43c0,3.134-2.37,5.58-5.505,5.58s-5.505-2.445-5.505-5.58
		C125.279,2.385,127.649,0,130.784,0z M130.784,9.179c1.92,0,3.465-1.619,3.465-3.75c0-2.04-1.545-3.6-3.465-3.6
		s-3.465,1.56-3.465,3.6C127.319,7.56,128.864,9.179,130.784,9.179z"/>
	<path fill="#FFFFFF" d="M138.225,1.845h-0.976V0.18h4.771c1.949,0,3.314,1.2,3.314,3.209c0,1.92-1.32,2.715-1.77,2.805v0.03
		c0,0,0.329,0.15,0.524,0.54l1.035,2.055c0.165,0.314,0.42,0.345,0.75,0.345h0.195v1.665h-1.035c-0.795,0-1.141-0.12-1.485-0.795
		l-1.365-2.686c-0.225-0.42-0.449-0.494-1.005-0.494h-0.989v3.975h-1.965V1.845z M141.749,5.175c0.99,0,1.575-0.615,1.575-1.68
		c0-1.05-0.585-1.65-1.545-1.65h-1.59v3.33H141.749z"/>
	<path fill="#FFFFFF" d="M147.704,1.845h-0.976V0.18h6.435c0.705,0,1.021,0.315,1.021,1.02v1.62h-1.785V2.175
		c0-0.21-0.12-0.33-0.33-0.33h-2.399v2.79h3.449V6.3h-3.449v2.535c0,0.21,0.12,0.33,0.33,0.33h2.46c0.21,0,0.329-0.12,0.329-0.33
		V8.189h1.785V9.81c0,0.72-0.314,1.02-1.02,1.02h-4.83c-0.72,0-1.02-0.3-1.02-1.02V1.845z"/>
	<path fill="#FFFFFF" d="M156.479,7.98c0,0,1.095,1.26,2.58,1.26c0.81,0,1.53-0.436,1.53-1.26c0-1.815-5.01-1.665-5.01-4.98
		c0-1.725,1.499-3,3.555-3c1.245,0,3.165,0.585,3.165,2.1v0.99h-1.771V2.61c0-0.495-0.705-0.825-1.41-0.825
		c-0.899,0-1.56,0.465-1.56,1.14c0,1.815,5.01,1.455,5.01,4.95c0,1.695-1.305,3.135-3.54,3.135c-2.354,0-3.659-1.649-3.659-1.649
		L156.479,7.98z"/>
</g>
</svg>
