<?xml version="1.0" encoding="utf-8"?>
<!-- Generator: Adobe Illustrator 16.0.0, SVG Export Plug-In . SVG Version: 6.00 Build 0)  -->
<!DOCTYPE svg PUBLIC "-//W3C//DTD SVG 1.1//EN" "http://www.w3.org/Graphics/SVG/1.1/DTD/svg11.dtd">
<svg version="1.1" id="Camada_1" xmlns="http://www.w3.org/2000/svg" xmlns:xlink="http://www.w3.org/1999/xlink" x="0px" y="0px"
	 width="32.811px" height="28.737px" viewBox="0.25 10.296 32.811 28.737" enable-background="new 0.25 10.296 32.811 28.737"
	 xml:space="preserve">
<g>
	<g>
		<path fill="#FFFFFF" d="M15.025,36.877c0,0.55-0.318,0.682-0.707,0.293L2.601,25.453c-0.389-0.389-0.389-1.025,0-1.414
			L14.322,12.32c0.389-0.389,0.707-0.257,0.707,0.293L15.025,36.877z"/>
		<path fill="none" stroke="#FFFFFF" stroke-miterlimit="10" d="M15.025,36.877c0,0.55-0.318,0.682-0.707,0.293L2.601,25.453
			c-0.389-0.389-0.389-1.025,0-1.414L14.322,12.32c0.389-0.389,0.707-0.257,0.707,0.293L15.025,36.877z"/>
	</g>
	<g>
		<path fill="#FFFFFF" d="M31.894,36.877c0,0.55-0.318,0.682-0.707,0.293L19.472,25.453c-0.389-0.389-0.389-1.025,0-1.414
			L31.187,12.32c0.389-0.389,0.707-0.257,0.707,0.293V36.877z"/>
		<path fill="none" stroke="#FFFFFF" stroke-miterlimit="10" d="M31.894,36.877c0,0.55-0.318,0.682-0.707,0.293L19.472,25.453
			c-0.389-0.389-0.389-1.025,0-1.414L31.187,12.32c0.389-0.389,0.707-0.257,0.707,0.293V36.877z"/>
	</g>
</g>
</svg>
