<?xml version="1.0" encoding="utf-8"?>
<!-- Generator: Adobe Illustrator 16.0.0, SVG Export Plug-In . SVG Version: 6.00 Build 0)  -->
<!DOCTYPE svg PUBLIC "-//W3C//DTD SVG 1.1//EN" "http://www.w3.org/Graphics/SVG/1.1/DTD/svg11.dtd">
<svg version="1.1" id="Camada_1" xmlns="http://www.w3.org/2000/svg" xmlns:xlink="http://www.w3.org/1999/xlink" x="0px" y="0px"
	 width="50px" height="50px" viewBox="0.783 -2.054 50 50" enable-background="new 0.783 -2.054 50 50" xml:space="preserve">
<g>
	<rect x="0.783" y="-2.054" fill="#FFFFFF" width="3.125" height="3.125"/>
	<rect x="47.658" y="-2.054" fill="#FFFFFF" width="3.125" height="3.125"/>
	<rect x="47.658" y="44.82" fill="#FFFFFF" width="3.125" height="3.125"/>
	<rect x="0.783" y="44.82" fill="#FFFFFF" width="3.125" height="3.125"/>
	<rect x="24.221" y="45.174" fill="#FFFFFF" width="3.125" height="2.42"/>
	<rect x="1.135" y="21.383" fill="#FFFFFF" width="2.422" height="3.125"/>
	<rect x="48.01" y="21.383" fill="#FFFFFF" width="2.422" height="3.125"/>
	<rect x="24.221" y="-1.702" fill="#FFFFFF" width="3.125" height="2.421"/>
	<path fill="#FFFFFF" d="M33.444,39.186c0.027,0.037,0.061,0.066,0.1,0.096c0.064,0.049,0.146,0.086,0.221,0.07
		c0.053-0.01,0.098-0.045,0.135-0.086c0.004,0.004,0.012,0.006,0.016,0.01c0.086,0.045,0.215,0.021,0.299-0.041
		c0.055-0.043,0.092-0.1,0.115-0.162c0.049,0.043,0.107,0.076,0.172,0.092c0.047,0.01,0.098,0.01,0.137-0.01
		c0.066-0.035,0.098-0.131,0.104-0.207c0.049,0.092,0.1,0.176,0.176,0.184c0.064,0.004,0.148-0.047,0.203-0.109
		c0.049-0.057,0.074-0.123,0.084-0.191c0.01,0.014,0.02,0.027,0.029,0.041c0.078,0.104,0.219,0.184,0.338,0.164
		c0.141-0.021,0.256-0.178,0.275-0.34c0.008-0.068-0.002-0.141-0.035-0.186c-0.074-0.111-0.283-0.068-0.445-0.098
		c-0.193-0.035-0.324-0.166-0.451-0.297c-0.131-0.135-0.26-0.27-0.373-0.416c-0.109-0.143-0.207-0.295-0.293-0.453
		c0.023-0.063,0.014-0.168,0.002-0.264c-0.037-0.365-0.061-0.604-0.066-0.869c-0.01-0.43,0.018-0.928,0-1.404
		c-0.018-0.475-0.078-0.928-0.1-1.387c-0.021-0.471-0.004-0.945-0.033-1.42c-0.033-0.521-0.119-1.045-0.051-1.555
		c0.035-0.26,0.111-0.514,0.172-0.77c0.178-0.248,0.348-0.502,0.496-0.768c0.428-0.766,0.666-1.623,0.953-2.457
		c0.195-0.568,0.412-1.123,0.609-1.689c0.02-0.016,0.037-0.031,0.055-0.049c0.383-0.373,0.398-1.016,0.402-1.586
		c0.002-0.352,0-0.676,0.049-1.003c0.031-0.205,0.082-0.41,0.102-0.619c0.033-0.355-0.023-0.719,0.033-1.069
		c0.033-0.214,0.109-0.422,0.168-0.634c0.092-0.345,0.137-0.7,0.184-1.053c0.08-0.616,0.168-1.229,0.283-1.838
		c0.076-0.404,0.168-0.806,0.268-1.203c0.141,0.171,0.275,0.347,0.418,0.518c0.377,0.455,0.811,0.883,1.053,1.421
		c0.227,0.502,0.285,1.102,0.568,1.553c0.328,0.527,0.961,0.854,1.27,1.455c0.143,0.278,0.217,0.618,0.434,0.784
		c0.178,0.135,0.447,0.158,0.709,0.136c0.01,0.103-0.01,0.221-0.074,0.3c-0.027,0.034-0.063,0.061-0.098,0.091
		c-0.111,0.094-0.225,0.219-0.227,0.349c0,0.092,0.057,0.186,0.066,0.289c0.004,0.065-0.012,0.136,0.018,0.185
		c0.029,0.048,0.098,0.077,0.156,0.089c0.027-0.03,0.049-0.063,0.059-0.101c0.018-0.067-0.016-0.141-0.023-0.214
		c-0.018-0.169,0.086-0.346,0.234-0.428c0.143-0.081,0.328-0.068,0.477-0.004c0.061,0.025,0.111,0.059,0.162,0.099
		c0.002,0.174-0.025,0.379-0.127,0.504c-0.078,0.097-0.201,0.147-0.271,0.288c-0.053,0.103-0.076,0.255-0.004,0.291
		c0.041,0.02,0.115,0,0.17-0.021c-0.008,0.045-0.002,0.084,0.02,0.102c0.047,0.035,0.162-0.006,0.232-0.041
		c-0.029,0.053-0.051,0.111-0.037,0.145c0.031,0.07,0.223,0.031,0.324-0.006c-0.033,0.027-0.059,0.059-0.066,0.082
		c-0.043,0.115,0.338,0.053,0.557-0.064c0.197-0.105,0.266-0.254,0.279-0.417c0.014-0.152-0.02-0.318-0.08-0.462
		c-0.043-0.103-0.1-0.193-0.115-0.31c-0.01-0.075,0-0.159-0.086-0.353c0.09-0.039-0.148-0.544-0.305-0.917
		c-0.135-0.323-0.205-0.548-0.316-0.77c-0.324-0.646-0.982-1.282-1.338-2.021c-0.141-0.294-0.234-0.604-0.385-0.885
		c-0.246-0.466-0.648-0.847-0.951-1.288c-0.336-0.488-0.549-1.049-0.803-1.587c-0.197-0.42-0.42-0.826-0.701-1.202
		c-0.361-0.482-0.814-0.914-1.354-1.171c-0.178-0.083-0.363-0.149-0.553-0.2c-0.117-0.053-0.229-0.114-0.338-0.182
		c-0.045-0.028-0.088-0.058-0.131-0.087c0.111-0.149,0.252-0.273,0.352-0.424c0.156-0.234,0.213-0.529,0.303-0.809
		c0.1-0.309,0.24-0.596,0.303-0.906c0.031-0.164,0.043-0.336,0.043-0.506c0.006-0.226,0.029-0.452,0.074-0.675
		c0.02-0.091,0.039-0.18,0.066-0.269c0.006,0.008,0.01,0.016,0.016,0.023c0.135,0.198,0.246,0.414,0.293,0.649
		c0.063,0.317,0.01,0.669-0.195,0.94c-0.098,0.132-0.23,0.244-0.221,0.409c0.004,0.085,0.047,0.184,0.105,0.213
		c0.098,0.051,0.242-0.088,0.328-0.222c0.139-0.217,0.121-0.418,0.168-0.621c0.084-0.363,0.371-0.734,0.338-1.094
		c-0.018-0.197-0.135-0.392-0.24-0.586c-0.115-0.214-0.217-0.43-0.398-0.576c-0.188-0.153-0.459-0.231-0.604-0.408
		C37.217,6.565,37.18,6.376,37.114,6.2c-0.123-0.322-0.342-0.614-0.703-0.684c-0.139-0.027-0.297-0.021-0.371,0.07
		c-0.055,0.067-0.064,0.181-0.055,0.272c-0.033-0.029-0.068-0.057-0.104-0.087c-0.15-0.126-0.303-0.263-0.486-0.337
		c-0.24-0.096-0.533-0.087-0.773,0.01c-0.314,0.124-0.541,0.394-0.756,0.666c-0.127,0.163-0.25,0.325-0.326,0.506
		c-0.156,0.355-0.143,0.777-0.32,1.146c-0.137,0.281-0.387,0.528-0.391,0.817c-0.006,0.188,0.096,0.395,0.211,0.558
		c0.008,0.038,0.016,0.077,0.027,0.117c0.037,0.145,0.096,0.303,0.205,0.408c0.135,0.132,0.35,0.182,0.541,0.181
		c0,0.004,0,0.008,0,0.01c0.033,0.2,0.012,0.407,0.045,0.605c0.02,0.117,0.061,0.234,0.115,0.344
		c-0.074,0.038-0.15,0.075-0.227,0.112c-0.307,0.221-0.66,0.423-1.035,0.467c-0.326,0.039-0.67-0.042-0.986,0.018
		c-0.252,0.046-0.488,0.183-0.719,0.317c-0.377,0.221-0.742,0.436-1.119,0.635c-0.41,0.217-0.836,0.415-1.236,0.651
		c-0.271,0.159-0.531,0.337-0.82,0.468c-0.4,0.183-0.859,0.275-1.203,0.535c-0.174,0.133-0.32,0.311-0.467,0.484
		c-0.238,0.281-0.484,0.554-0.652,0.869c-0.277,0.52-0.346,1.149-0.385,1.755c-0.002,0.039-0.006,0.079-0.006,0.118
		c-0.201,0.15-0.393,0.335-0.494,0.566c-0.068,0.159-0.098,0.34-0.168,0.485c-0.068,0.142-0.178,0.25-0.283,0.417
		c-0.018,0.026-0.037,0.059-0.051,0.086c-0.105-0.06-0.215-0.118-0.324-0.17c-0.141-0.07-0.283-0.132-0.43-0.188
		c-0.008-0.009-0.016-0.018-0.021-0.026c-0.133-0.141-0.344-0.176-0.543-0.221c-0.33-0.075-0.631-0.177-0.914-0.329
		c-0.324-0.174-0.625-0.412-0.879-0.685c0.203-0.578,0.455-1.146,0.613-1.722c0.082-0.299,0.139-0.601,0.191-0.932
		c0.039-0.237,0.074-0.49-0.012-0.682c-0.113-0.256-0.436-0.406-0.703-0.571c-0.189-0.115-0.35-0.238-0.531-0.347
		c-0.043-0.032-0.082-0.065-0.121-0.099c0.037-0.021,0.074-0.043,0.111-0.065c0.223-0.134,0.441-0.285,0.574-0.496
		c0.092-0.141,0.143-0.307,0.203-0.467c0.068-0.19,0.152-0.372,0.221-0.56c0.053-0.12,0.104-0.243,0.15-0.365
		c0.109-0.29,0.199-0.582,0.313-0.88c0.127-0.348,0.287-0.704,0.256-1.057c-0.016-0.167-0.074-0.334-0.135-0.5
		c-0.172-0.46-0.369-0.905-0.678-1.272c-0.146-0.177-0.318-0.334-0.502-0.475c-0.115-0.097-0.248-0.181-0.389-0.234
		c-0.211-0.082-0.445-0.094-0.676-0.107c-0.336-0.02-0.662-0.043-1.002-0.035c-0.221,0.006-0.445,0.022-0.639,0.107
		c-0.219,0.092-0.396,0.268-0.578,0.426c-0.172,0.148-0.348,0.283-0.516,0.435c-0.287,0.257-0.555,0.557-0.684,0.924
		c-0.131,0.37-0.119,0.81,0.045,1.163c0.025,0.057,0.055,0.111,0.078,0.169c0.051,0.118,0.072,0.246,0.08,0.373
		c-0.072,0.115-0.012,0.257-0.004,0.396c0.004,0.135-0.039,0.269-0.008,0.379c0.041,0.138,0.195,0.239,0.303,0.361
		c0.064,0.073,0.111,0.152,0.188,0.204c0.006,0.092,0.025,0.195,0.086,0.262c0.064,0.07,0.172,0.102,0.23,0.171
		c0.063,0.076,0.063,0.198,0.057,0.314c-0.01,0.178-0.035,0.337-0.105,0.487c-0.043-0.118-0.066-0.247-0.078-0.373
		c-0.08,0.117-0.174,0.229-0.283,0.315c-0.232,0.182-0.531,0.249-0.818,0.346c-0.383,0.131-0.738,0.313-1.068,0.534
		c-0.326,0.22-0.627,0.479-0.912,0.756c-0.867,0.844-1.557,1.847-2.264,2.829c-0.23,0.318-0.461,0.637-0.686,0.959
		c-0.199,0.08-0.395,0.178-0.572,0.299c-0.59,0.4-1.004,1.048-1.258,1.729c-0.279,0.755-0.361,1.55-0.664,2.277
		c-0.1,0.243-0.227,0.478-0.357,0.71c-0.221,0.173-0.412,0.378-0.572,0.623c-0.268,0.404-0.445,0.91-0.359,1.367
		c0.041,0.23,0.152,0.451,0.266,0.668c0.059,0.113,0.117,0.223,0.244,0.279c0.145,0.064,0.373,0.061,0.422,0
		c0.076-0.088-0.234-0.293-0.393-0.482c-0.104-0.121-0.141-0.236-0.188-0.357c-0.037-0.098-0.076-0.201-0.115-0.305
		c0.109,0.109,0.23,0.182,0.367,0.281c0.17,0.127,0.363,0.301,0.541,0.188c0.053-0.033,0.105-0.096,0.107-0.137
		c0.002-0.074-0.156-0.086-0.281-0.131c-0.205-0.066-0.314-0.209-0.346-0.371c-0.035-0.195,0.047-0.42,0.18-0.584
		c0.094-0.115,0.213-0.199,0.346-0.26C8.647,23.764,8.555,23.877,8.492,24c-0.057,0.113-0.09,0.236-0.072,0.367
		c0.023,0.178,0.139,0.371,0.324,0.383c0.059,0.002,0.125-0.014,0.15-0.053c0.037-0.055-0.014-0.156,0-0.23
		c0.018-0.092,0.141-0.135,0.223-0.199c0.072-0.059,0.111-0.137,0.158-0.209c0.1-0.156,0.229-0.291,0.35-0.434
		c0.051-0.209,0.119-0.414,0.203-0.611c0.176-0.415,0.426-0.795,0.713-1.147c0.352-0.43,0.756-0.813,1.096-1.247
		c0.277-0.356,0.514-0.748,0.73-1.146c0.063-0.041,0.125-0.084,0.186-0.127c0.395-0.279,0.76-0.597,1.121-0.917
		c0.021,0.527-0.016,1.063-0.127,1.58c-0.086,0.391-0.213,0.771-0.355,1.145c-0.24,0.623-0.521,1.226-0.791,1.834
		c-0.18,0.403-0.355,0.807-0.535,1.209c-0.027,0.092-0.057,0.184-0.088,0.275c-0.09,0.281-0.189,0.557-0.305,0.832
		c-0.078,0.186-0.164,0.369-0.199,0.559c-0.049,0.285,0.01,0.584,0.066,0.879c0.084,0.43,0.158,0.846,0.275,1.258
		c0.053,0.195,0.119,0.389,0.166,0.586c0.059,0.23,0.092,0.465,0.143,0.701c0.055,0.248,0.123,0.502,0.09,0.746
		c-0.021,0.158-0.086,0.314-0.113,0.473c-0.018,0-0.035,0-0.053,0c-0.084,0.002-0.184,0.006-0.242,0.055
		c-0.051,0.045-0.07,0.125-0.098,0.197c-0.045,0.115-0.109,0.211-0.176,0.307c-0.117,0.168-0.238,0.346-0.307,0.537
		c-0.006,0.014-0.01,0.029-0.016,0.043c-0.143-0.07-0.309-0.113-0.467-0.107c-0.156,0.01-0.307,0.064-0.447,0.137
		c-0.152,0.08-0.295,0.186-0.406,0.311c-0.133,0.154-0.229,0.34-0.311,0.529c-0.133,0.297-0.244,0.602-0.42,0.865
		c-0.127,0.189-0.285,0.357-0.434,0.541c-0.197,0.25-0.371,0.527-0.461,0.813c-0.043,0.148-0.068,0.301-0.107,0.475
		c-0.025,0.117-0.061,0.244,0,0.324c0.035,0.047,0.102,0.078,0.162,0.096c-0.029,0.074-0.055,0.154-0.029,0.23
		c0.02,0.063,0.072,0.121,0.137,0.137C8.26,36.002,8.295,36,8.324,35.99c0.008,0.063,0.07,0.133,0.137,0.16
		c0.029,0.01,0.057,0.014,0.086,0.014c0.004,0.051,0.021,0.1,0.043,0.156c0.023,0.068,0.051,0.145,0.104,0.17
		c0.055,0.025,0.143-0.002,0.203-0.039c0.01,0.059,0.035,0.115,0.066,0.17c0.037,0.068,0.088,0.133,0.15,0.156
		c0.111,0.043,0.264-0.047,0.348-0.156c0.113-0.139,0.111-0.309,0.162-0.461c0.055-0.16,0.166-0.301,0.248-0.453
		c0.117-0.209,0.184-0.439,0.285-0.652c0.088-0.182,0.203-0.354,0.316-0.523c0.092-0.139,0.182-0.277,0.27-0.42
		c0.063-0.104,0.121-0.207,0.18-0.313c0.074,0.094,0.172,0.172,0.291,0.215c0.125,0.047,0.277,0.059,0.359,0.131
		c0.105,0.094,0.1,0.289,0.145,0.461c0.023,0.096,0.061,0.184,0.131,0.23c0.063,0.043,0.15,0.053,0.23,0.076
		c0.076,0.023,0.146,0.059,0.219,0.078c0.211,0.053,0.447-0.051,0.668-0.133c0.168-0.061,0.33-0.113,0.482-0.186
		c0.154-0.074,0.297-0.174,0.449-0.254c0.242-0.125,0.506-0.207,0.77-0.27c-0.098,0.078-0.193,0.156-0.27,0.248
		c-0.238,0.285-0.301,0.701-0.357,1.096c-0.031,0.232-0.064,0.459-0.152,0.662c-0.086,0.197-0.23,0.375-0.357,0.559
		c-0.145,0.215-0.268,0.436-0.381,0.664c-0.084,0.164-0.158,0.332-0.229,0.508c-0.084,0.211-0.164,0.432-0.281,0.611
		c-0.141,0.221-0.344,0.383-0.484,0.664c-0.096,0.191-0.164,0.441-0.076,0.561c0.094,0.123,0.361,0.098,0.586,0.127
		c0.371,0.045,0.621,0.23,0.918,0.381c0.27,0.139,0.576,0.244,0.865,0.281c0.201,0.023,0.395,0.014,0.637,0
		c0.248-0.016,0.549-0.037,0.611-0.23c0.023-0.076,0.012-0.178-0.025-0.254c-0.105-0.209-0.404-0.215-0.637-0.305
		c-0.361-0.145-0.557-0.498-0.738-0.816c-0.045-0.055-0.088-0.133-0.08-0.199c0.014-0.088,0.113-0.156,0.197-0.191
		c0.016,0.016,0.031,0.033,0.047,0.051c0.109,0.127,0.197,0.277,0.307,0.385c0.219,0.211,0.527,0.25,0.822,0.504
		c0.109,0.094,0.217,0.215,0.297,0.197c0.076-0.018,0.125-0.158,0.176-0.285c0.121-0.313,0.223-0.525,0.338-0.756
		c0.17-0.338,0.365-0.709,0.527-1.086c0.234-0.547,0.396-1.098,0.637-1.633c0.154-0.348,0.342-0.688,0.426-1.053
		c0.068-0.293,0.07-0.602,0.123-0.898c0.078-0.467,0.275-0.906,0.352-1.371c0.025-0.166,0.037-0.334,0.045-0.502
		c0.006-0.016,0.014-0.029,0.02-0.045c0.045-0.123,0.023-0.27,0.035-0.404c0.035-0.352,0.328-0.631,0.451-0.963
		c0.1-0.264,0.092-0.561,0.109-0.844c0.064-0.924,0.43-1.703,0.703-2.686c0.104-0.373,0.193-0.773,0-1.053
		c-0.129-0.184-0.385-0.314-0.461-0.525c-0.047-0.127-0.031-0.283,0-0.418c0.057-0.236,0.066-0.494,0-0.734
		c-0.051-0.186-0.146-0.359-0.266-0.51c0.107-0.326,0.146-0.672,0.215-1.01c0.104-0.546,0.273-1.076,0.449-1.601
		c0.229-0.685,0.473-1.362,0.666-2.058c0.008-0.032,0.018-0.065,0.027-0.099c0.166,0.044,0.334,0.086,0.498,0.138
		c0.225,0.07,0.445,0.162,0.668,0.213c0.236,0.055,0.473,0.064,0.727,0.169c0.225,0.092,0.461,0.258,0.621,0.213
		c0.021-0.006,0.039-0.015,0.059-0.026c0.186,0.006,0.379,0.05,0.537,0.146c0.084,0.05,0.154,0.112,0.23,0.173
		c0.041,0.032,0.084,0.064,0.127,0.099c0,0.055,0.016,0.112,0.049,0.148c0.053,0.06,0.148,0.06,0.244,0.028
		c-0.01,0.042-0.01,0.087,0.004,0.132c0.02,0.071,0.072,0.145,0.135,0.168c0.064,0.027,0.141,0.001,0.211-0.044
		c-0.004,0.081,0.008,0.198,0.063,0.237c0.064,0.046,0.186-0.013,0.273-0.076c0.016-0.01,0.029-0.021,0.043-0.031
		c-0.008,0.086,0.008,0.207,0.074,0.247c0.049,0.03,0.123,0.019,0.188-0.006c0.088-0.033,0.148-0.088,0.221-0.139
		c0.02-0.015,0.039-0.03,0.059-0.042c0.098,0.031,0.205,0.049,0.309,0.042c0.131-0.011,0.258-0.063,0.377-0.117
		c0.115-0.052,0.223-0.104,0.287-0.239c0.023-0.047,0.039-0.104,0.023-0.129l0,0c0.059-0.021,0.127-0.063,0.15-0.121
		c0.025-0.06,0.004-0.136-0.039-0.192c-0.068-0.086-0.188-0.124-0.279-0.099c-0.076,0.02-0.135,0.079-0.199,0.128
		c-0.07,0.053-0.145,0.092-0.219,0.137c0.029-0.087,0.064-0.167,0.102-0.248c0.031-0.064,0.063-0.13,0.088-0.199
		c0.012-0.032,0.02-0.066,0.031-0.1c0.029,0.009,0.063,0.018,0.092,0.027c0.092,0.026,0.188,0.055,0.234,0.034
		c0.1-0.042-0.008-0.286-0.049-0.486c-0.059-0.279,0.008-0.469,0.033-0.684c0.025-0.222,0.006-0.47,0.049-0.703
		c0.037-0.195,0.121-0.378,0.219-0.551c0.158-0.282,0.354-0.534,0.518-0.819c0.107-0.187,0.199-0.39,0.352-0.534
		c0.119-0.115,0.271-0.193,0.418-0.284c0.309-0.194,0.574-0.441,0.885-0.618c0.158-0.091,0.33-0.162,0.5-0.234
		c0.242-0.1,0.484-0.199,0.699-0.339c0.258-0.042,0.518,0.227,0.789,0.239c0.002,0,0.002,0,0.002,0
		c0.039,0.161,0.068,0.323,0.098,0.484c0.098,0.552,0.158,1.116,0.117,1.671c-0.047,0.641-0.23,1.271-0.4,1.889
		c-0.188,0.684-0.357,1.354-0.568,2.056c-0.072,0.239-0.15,0.483-0.135,0.718c0.023,0.322,0.221,0.629,0.318,0.952
		c0.068,0.229,0.084,0.468,0.1,0.703c0.014,0.471,0.066,0.945,0.182,1.398c0.193,0.768,0.561,1.469,0.941,2.191
		c0.158,0.297,0.32,0.598,0.357,0.916c0.033,0.273-0.025,0.559-0.076,0.842c-0.045,0.256-0.086,0.51-0.121,0.762
		c-0.193,0.129-0.373,0.283-0.527,0.457c-0.266,0.303-0.451,0.67-0.584,1.053c-0.033,0.098-0.066,0.195-0.092,0.295
		c-0.209,0.141-0.387,0.326-0.527,0.541c-0.064,0.1-0.121,0.207-0.15,0.318c-0.047,0.184-0.016,0.387-0.016,0.584
		c-0.002,0.248-0.055,0.492-0.084,0.736c-0.043,0.352-0.043,0.707-0.066,1.068c-0.014,0.221-0.037,0.441-0.068,0.652
		c-0.055,0.381-0.133,0.723,0.102,1.186c0.117,0.234,0.316,0.5,0.434,0.418c0.055-0.039,0.092-0.148,0.117-0.25
		c0.008-0.035,0.016-0.068,0.023-0.102c0.041,0.074,0.096,0.135,0.178,0.182c0.043,0.023,0.098,0.045,0.131,0.033
		c0.049-0.018,0.063-0.104,0.061-0.184c0.072,0.061,0.199,0.133,0.268,0.096c0.051-0.027,0.07-0.117,0.072-0.199
		c0.002-0.047,0-0.092-0.006-0.133c0.047-0.029,0.088-0.066,0.125-0.107c0.057-0.061,0.109-0.135,0.115-0.211
		c0.002-0.039-0.006-0.078-0.021-0.117c0.061-0.027,0.119-0.07,0.154-0.127c0.043-0.07,0.047-0.16,0.031-0.24
		c-0.031-0.164-0.148-0.291-0.191-0.443c-0.021-0.07-0.025-0.146-0.031-0.223c-0.016-0.24-0.031-0.479-0.049-0.715
		c-0.004-0.082-0.01-0.16-0.01-0.24c0-0.027,0-0.059,0-0.088c-0.006-0.066-0.004-0.139,0.016-0.203
		c0.053-0.158,0.215-0.279,0.371-0.336c0.033,0.51,0.109,1.008,0.25,1.484c0.188,0.629,0.484,1.219,0.568,1.922
		c0.059,0.48,0.016,1.012,0.402,1.305c0.02,0.016,0.041,0.029,0.063,0.043c-0.023,0.098-0.043,0.201-0.029,0.299
		c0.027,0.182,0.17,0.342,0.219,0.512c0.027,0.105,0.021,0.215,0.061,0.338c0.051,0.166,0.186,0.357,0.32,0.326
		C33.35,39.273,33.403,39.23,33.444,39.186z"/>
	
		<rect x="2.346" y="-0.492" fill="none" stroke="#FFFFFF" stroke-width="0.5" stroke-miterlimit="10" width="46.875" height="46.875"/>
</g>
</svg>
