<?xml version="1.0" encoding="utf-8"?>
<!-- Generator: Adobe Illustrator 16.0.0, SVG Export Plug-In . SVG Version: 6.00 Build 0)  -->
<!DOCTYPE svg PUBLIC "-//W3C//DTD SVG 1.1//EN" "http://www.w3.org/Graphics/SVG/1.1/DTD/svg11.dtd">
<svg version="1.1" id="Camada_1" xmlns="http://www.w3.org/2000/svg" xmlns:xlink="http://www.w3.org/1999/xlink" x="0px" y="0px"
	 width="55.494px" height="50px" viewBox="-2.775 -2.5 55.494 50" enable-background="new -2.775 -2.5 55.494 50"
	 xml:space="preserve">
<path fill="#FFFFFF" d="M52.307,1.767c-0.36,0.03-4.583,0.471-4.583,0.471s3.036-3.689,3.43-4.158
	c0.288-0.351-0.043-0.661-0.374-0.561c-0.543,0.163-5.629,1.721-5.629,1.721c-5.187-2.254-10.962,0.49-11.794,8.128
	c-0.301,2.81-1.415,3.78-4.926,3.486L14.034,9.623c0.343,8.82,7.74,15.19,16.517,14.225c3.026-0.336,5.819-1.495,8.162-3.232
	c0.152-0.126,0.457-0.158,0.611,0.016c0.183,0.196,0.158,0.483-0.024,0.681c-2.432,2.209-5.451,3.786-8.819,4.412
	c-6.546,1.212-12.643-1.525-16.006-6.542c-0.606-0.907-1.211-1.478-2.68-1.635c-1.401-0.149-12.826-1.361-12.826-1.361
	c-0.881-0.021-1.651,0.691-1.737,1.579c-0.081,0.902,0.563,1.643,1.443,1.668l5.083-0.304c0,0,4.804-0.281,5.205-0.31
	c0.411-0.022,0.495,0.479,0.126,0.624c-0.365,0.138-4.809,1.803-4.809,1.803l-4.887,1.841c-0.831,0.373-1.227,1.347-0.908,2.149
	c0.326,0.817,1.252,1.169,2.077,0.776c0,0,4-2.26,5.241-2.956c1.647-0.934,3-0.574,4.009,0.837
	c3.184,4.451,7.946,7.254,13.025,8.254l-0.495,1.76c-0.288,0.986,0.048,2.003,0.764,2.655l-2.703,9.453
	c-0.098,0.353-0.027,0.734,0.194,1.024c0.22,0.288,0.572,0.459,0.93,0.459h14.009c0.649,0,1.164-0.522,1.164-1.166
	c0-0.647-0.515-1.176-1.164-1.176h-5.047l2.272-7.955c0.948-0.179,1.777-0.859,2.053-1.855l1.389-4.866
	c0.37-0.178,0.746-0.352,1.096-0.556C43.88,26.181,48.654,18.395,47.883,6.11c0,0,4.326-3.486,4.64-3.743
	C52.83,2.117,52.789,1.712,52.307,1.767 M28.049,45.161h-4.96l2.277-7.958c0.948-0.178,1.764-0.858,2.053-1.855l0.532-1.891
	c0.426-1.471,2.188-0.97,1.91,0.014c-0.062,0.205-0.124,0.439-0.124,0.439c-0.286,0.985,0.05,2.004,0.765,2.654L28.049,45.161z
	 M41.893,5.316c-1.19,0-2.154-0.963-2.154-2.162c0-1.186,0.964-2.139,2.154-2.139c1.178,0,2.14,0.953,2.14,2.139
	C44.032,4.353,43.071,5.316,41.893,5.316"/>
</svg>
