<?xml version="1.0" encoding="utf-8"?>
<!-- Generator: Adobe Illustrator 16.0.0, SVG Export Plug-In . SVG Version: 6.00 Build 0)  -->
<!DOCTYPE svg PUBLIC "-//W3C//DTD SVG 1.1//EN" "http://www.w3.org/Graphics/SVG/1.1/DTD/svg11.dtd">
<svg version="1.1" id="Camada_1" xmlns="http://www.w3.org/2000/svg" xmlns:xlink="http://www.w3.org/1999/xlink" x="0px" y="0px"
	 width="60.691px" height="60.693px" viewBox="0 0 60.691 60.693" enable-background="new 0 0 60.691 60.693" xml:space="preserve">
<g>
	<g>
		<g>
			<path fill="#FFFFFF" d="M58.692,54.883c0,2.096-1.715,3.811-3.811,3.811H5.809c-2.096,0-3.81-1.715-3.81-3.811V5.81
				C1.999,3.714,3.713,2,5.809,2h49.073c2.096,0,3.811,1.714,3.811,3.81V54.883z"/>
			<path fill="none" stroke="#646464" stroke-width="4" stroke-miterlimit="10" d="M58.692,54.883c0,2.096-1.715,3.811-3.811,3.811
				H5.809c-2.096,0-3.81-1.715-3.81-3.811V5.81C1.999,3.714,3.713,2,5.809,2h49.073c2.096,0,3.811,1.714,3.811,3.81V54.883z"/>
		</g>
		<g>
			<polyline fill="#FFFFFF" stroke="#161615" stroke-width="0.25" stroke-miterlimit="10" points="36.978,19.066 50.892,23.297 
				50.892,33.36 36.978,29.13 			"/>
			<polygon fill="#747473" points="44.111,25.114 44.111,28.855 49.005,30.3 48.998,26.339 			"/>
			<polygon fill="#75C5F3" stroke="#161615" stroke-width="0.25" stroke-miterlimit="10" points="37.242,21.852 37.242,24.426 
				40.61,25.421 40.604,22.695 			"/>
			<g>
				<polyline fill="#FFFFFF" stroke="#161615" stroke-width="0.25" stroke-miterlimit="10" points="8.706,42.839 8.706,43.399 
					35.037,51.42 52.227,38.909 52.249,38.359 				"/>
				<polygon fill="#FFFFFF" stroke="#161615" stroke-width="0.25" stroke-miterlimit="10" points="25.624,30.516 8.706,42.839 
					35.052,50.87 52.227,38.359 				"/>
			</g>
			
				<rect x="9.617" y="22.528" fill="#FFFFFF" stroke="#161615" stroke-width="0.25" stroke-miterlimit="10" width="0.587" height="20.196"/>
			
				<rect x="25.473" y="11.083" fill="#FFFFFF" stroke="#161615" stroke-width="0.25" stroke-miterlimit="10" width="0.586" height="20.196"/>
			
				<rect x="34.328" y="30.741" fill="#FFFFFF" stroke="#161615" stroke-width="0.25" stroke-miterlimit="10" width="0.587" height="19.422"/>
			
				<rect x="50.892" y="19.111" fill="#FFFFFF" stroke="#161615" stroke-width="0.25" stroke-miterlimit="10" width="0.587" height="19.376"/>
			<path fill-rule="evenodd" clip-rule="evenodd" fill="#323232" stroke="#161615" stroke-width="0.25" stroke-miterlimit="10" d="
				M27.611,38.546c-0.107,0.009-0.247,0.013-0.343-0.01c-0.012-0.02-0.024-0.037-0.037-0.057c0.025-0.305,0.051-0.607,0.076-0.912
				c-0.004-0.14-0.008-0.28-0.01-0.418c0.035-0.512,0.024-1.015,0.113-1.482c0.026-0.108,0.05-0.216,0.077-0.323
				c0.028-0.034,0.055-0.07,0.086-0.104c0.007-0.054,0.012-0.109,0.018-0.161c0.139-0.302,0.248-0.722,0.313-1.085
				c-0.014-0.094-0.024-0.19-0.038-0.285c0.011-0.099,0.02-0.196,0.029-0.294c-0.05-0.248-0.101-0.494-0.151-0.741
				c-0.04-0.216,0.046-0.417,0.075-0.588c-0.013-0.004-0.024-0.007-0.037-0.012c-0.18,0.229-1.027,0.572-1.36,0.685
				c-0.25,0.084-0.618,0.04-0.654-0.246c-0.018-0.129,0.257-0.496,0.322-0.59c0.351-0.498,0.845-0.843,1.227-1.321
				c0.047-0.036,0.094-0.069,0.142-0.104c0.055-0.084,0.02-0.226,0.039-0.341c0.029-0.18,0.05-0.476,0.113-0.646
				c0.092-0.029,0.126-0.102,0.199-0.144c0.088-0.047,0.114-0.011,0.2-0.074c0.051,0.016,0.1,0.03,0.152,0.047
				c0.002-0.004,0.006-0.007,0.01-0.01c-0.011-0.544,0.148-1.013,0.502-1.188c0.378-0.186,0.939-0.056,1.132,0.218
				c0.18,0.263,0.308,1.044,0.114,1.371c-0.057,0.092-0.381,0.509-0.314,0.615c0.14,0.274,0.993,0.261,1.264,0.466
				c0.231,0.175,0.43,0.581,0.522,0.885c0.035,0.135,0.07,0.271,0.105,0.408c0.131,0.273,0.28,0.539,0.39,0.865
				c0.052,0.154,0.194,0.713,0.048,0.817c-0.083,0.057-0.221,0.027-0.342,0.045c-0.495,0.084-0.834-0.174-1.227-0.216
				c0,0.006,0,0.013,0,0.02c-0.059,0.113-0.043,0.339-0.021,0.483c0.007,0.146,0.015,0.29,0.021,0.437
				c0.054,0.226,0.137,0.463,0.179,0.713c0.009,0.2,0.014,0.4,0.02,0.599c0.065,0.424,0.044,0.934-0.047,1.293
				c-0.069,0.219-0.14,0.438-0.208,0.657c-0.064,0.232-0.083,0.796-0.258,0.901c-0.002,0.234-0.065,0.573,0.01,0.78
				c0.086,0.091,0.171,0.183,0.257,0.273c0.138,0.199,0.249,0.486,0.313,0.741c0.057,0.413,0.113,0.825,0.171,1.236
				c0.022,0.135,0.045,0.267,0.066,0.398c0.096,0.121,0.192,0.241,0.286,0.361c0.177,0.092,0.314,0.075,0.36,0.295
				c0.059,0.28-0.124,0.435-0.162,0.638c-0.036,0.192,0.068,0.361,0.021,0.56c-0.096,0.387-0.38,0.837-0.94,0.695
				c-0.05-0.181,0.01-0.334,0.037-0.485c-0.006-0.07-0.012-0.139-0.021-0.21c0.026-0.109,0.053-0.222,0.077-0.333
				c0.057-0.345-0.057-0.739-0.104-1.007c0-0.098,0-0.196,0-0.294c-0.125-0.557-0.419-1.063-0.704-1.482
				c-0.111-0.165-0.267-0.311-0.351-0.503c-0.048-0.137-0.095-0.273-0.142-0.41c-0.075-0.161-0.191-0.281-0.247-0.474
				c-0.055-0.179-0.018-0.505-0.086-0.658c-0.035-0.008-0.069-0.018-0.104-0.027c-0.004,0.005-0.009,0.007-0.012,0.01
				c0.002,0.24,0.013,0.468-0.027,0.676c-0.034,0.168-0.129,0.331-0.095,0.532c0.044,0.27,0.197,0.816,0.142,1.111
				c-0.024,0.084-0.051,0.172-0.076,0.256c-0.057,0.263,0.014,0.926,0.057,1.188c0.008,0.169,0.013,0.343,0.02,0.513
				c0.02,0.193,0.037,0.386,0.058,0.579c0.043,0.209,0.17,0.373,0.114,0.609c-0.032,0.132,0.15,0.189,0.047,0.322
				c-0.051,0.067-0.388,0.079-0.513,0.059c-0.13-0.024-0.265-0.064-0.353-0.134c-0.05-0.04-0.07-0.105-0.134-0.133
				c-0.224-0.099-0.398-0.046-0.607-0.181c-0.041-0.146-0.032-0.308,0.097-0.361c0.106-0.01,0.215-0.02,0.323-0.029
				c0.18-0.044,0.343-0.194,0.426-0.333c0.12-0.198-0.172-1.085-0.228-1.281c-0.16-0.584-0.233-1.185-0.342-1.834
				c0-0.293,0-0.584,0-0.875C27.662,39.186,27.636,38.867,27.611,38.546z M28.21,29.906c0.021,0.007,0.045,0.014,0.067,0.021
				c-0.066,0.167-0.104,0.526-0.2,0.665c-0.063,0.09-0.181,0.134-0.267,0.198c-0.189,0.147-0.639,0.514-0.712,0.743
				c0.211-0.044,0.471-0.366,0.673-0.485c0.462-0.271,1.12,0.089,0.876-0.778c-0.022-0.096-0.045-0.19-0.067-0.287
				c-0.053-0.015-0.107-0.03-0.16-0.045c-0.084-0.061-0.077-0.236-0.173-0.277c-0.002,0.002-0.004,0.007-0.009,0.009
				C28.228,29.749,28.219,29.828,28.21,29.906z M30.746,32.197c-0.108,0.197-0.301,0.637-0.274,0.912
				c0.262,0.026,0.453-0.011,0.692-0.028c-0.052-0.325-0.304-0.558-0.378-0.884C30.772,32.197,30.76,32.197,30.746,32.197z"/>
			<g>
				<g>
					<polyline fill="#696969" stroke="#161615" stroke-width="0.25" stroke-miterlimit="10" points="8.695,19.927 8.695,23.401 
						35.025,31.422 52.217,18.912 52.237,15.448 					"/>
					<polygon fill="#696969" stroke="#161615" stroke-width="0.25" stroke-miterlimit="10" points="25.614,7.606 8.695,19.927 
						35.042,27.958 52.217,15.448 					"/>
				</g>
				<polyline fill="none" stroke="#161615" stroke-width="0.25" stroke-miterlimit="10" points="8.695,19.927 28.422,11.527 
					35.042,27.958 				"/>
				<polygon fill="#323232" stroke="#161615" stroke-width="0.25" stroke-miterlimit="10" points="52.237,15.448 28.422,11.527 
					25.614,7.606 				"/>
			</g>
			<g>
				<polygon fill="#DCDCDC" points="19.727,32.879 15.846,35.695 15.846,43.205 29.576,47.379 33.455,44.459 33.455,37.052 				"/>
				
					<line fill="none" stroke="#161615" stroke-width="0.25" stroke-miterlimit="10" x1="29.576" y1="47.379" x2="15.846" y2="43.205"/>
				
					<line fill="none" stroke="#161615" stroke-width="0.25" stroke-miterlimit="10" x1="33.455" y1="44.459" x2="29.576" y2="47.379"/>
				
					<line fill="none" stroke="#161615" stroke-width="0.25" stroke-miterlimit="10" x1="29.576" y1="39.87" x2="15.846" y2="35.695"/>
				<polyline fill="none" stroke="#161615" stroke-width="0.25" stroke-miterlimit="10" points="19.727,32.879 33.455,37.052 
					29.576,39.896 				"/>
				
					<line fill="none" stroke="#161615" stroke-width="0.25" stroke-miterlimit="10" x1="15.846" y1="35.72" x2="19.727" y2="32.879"/>
				
					<line fill="none" stroke="#161615" stroke-width="0.25" stroke-miterlimit="10" x1="29.576" y1="47.379" x2="29.576" y2="39.896"/>
				
					<line fill="none" stroke="#161615" stroke-width="0.25" stroke-miterlimit="10" x1="15.846" y1="43.205" x2="15.846" y2="35.72"/>
				
					<line fill="none" stroke="#161615" stroke-width="0.25" stroke-miterlimit="10" x1="33.482" y1="37.052" x2="33.455" y2="44.459"/>
			</g>
		</g>
	</g>
</g>
</svg>
