<?xml version="1.0" encoding="utf-8"?>
<!-- Generator: Adobe Illustrator 16.0.0, SVG Export Plug-In . SVG Version: 6.00 Build 0)  -->
<!DOCTYPE svg PUBLIC "-//W3C//DTD SVG 1.1//EN" "http://www.w3.org/Graphics/SVG/1.1/DTD/svg11.dtd">
<svg version="1.1" id="Camada_1" xmlns="http://www.w3.org/2000/svg" xmlns:xlink="http://www.w3.org/1999/xlink" x="0px" y="0px"
	 width="60.693px" height="60.693px" viewBox="0 0 60.693 60.693" enable-background="new 0 0 60.693 60.693" xml:space="preserve">
<g>
	<g>
		<g>
			<path fill="#FFFFFF" d="M58.694,55.516c0,1.748-1.43,3.178-3.178,3.178H5.177c-1.746,0-3.178-1.43-3.178-3.178V5.177
				C1.999,3.427,3.428,2,5.177,2h50.342c1.748,0,3.178,1.431,3.178,3.177L58.694,55.516L58.694,55.516z"/>
			<path fill="none" stroke="#646464" stroke-width="4" stroke-miterlimit="10" d="M58.694,55.516c0,1.748-1.43,3.178-3.178,3.178
				H5.177c-1.746,0-3.178-1.43-3.178-3.178V5.177C1.999,3.427,3.428,2,5.177,2h50.342c1.748,0,3.178,1.431,3.178,3.177
				L58.694,55.516L58.694,55.516z"/>
		</g>
		<g enable-background="new    ">
			<path fill="#646464" d="M26.629,36.381h1.985V22.743h-1.985v-3.102h7.435v3.102H32.08v13.637h1.983v3.104h-7.435V36.381z"/>
		</g>
	</g>
</g>
</svg>
