<?xml version="1.0" encoding="utf-8"?>
<!-- Generator: Adobe Illustrator 16.0.0, SVG Export Plug-In . SVG Version: 6.00 Build 0)  -->
<!DOCTYPE svg PUBLIC "-//W3C//DTD SVG 1.1//EN" "http://www.w3.org/Graphics/SVG/1.1/DTD/svg11.dtd">
<svg version="1.1" id="Camada_1" xmlns="http://www.w3.org/2000/svg" xmlns:xlink="http://www.w3.org/1999/xlink" x="0px" y="0px"
	 width="60.693px" height="60.693px" viewBox="0 0 60.693 60.693" enable-background="new 0 0 60.693 60.693" xml:space="preserve">
<g>
	<g>
		<g>
			<path fill="#FFFFFF" d="M58.694,55.516c0,1.748-1.43,3.178-3.178,3.178H5.177c-1.744,0-3.178-1.43-3.178-3.178V5.177
				C1.999,3.427,3.428,2,5.177,2H55.52c1.748,0,3.178,1.433,3.178,3.177L58.694,55.516L58.694,55.516z"/>
			<path fill="none" stroke="#646464" stroke-width="4" stroke-miterlimit="10" d="M58.694,55.516c0,1.748-1.43,3.178-3.178,3.178
				H5.177c-1.744,0-3.178-1.43-3.178-3.178V5.177C1.999,3.427,3.428,2,5.177,2H55.52c1.748,0,3.178,1.433,3.178,3.177L58.694,55.516
				L58.694,55.516z"/>
		</g>
		<g enable-background="new    ">
			<path fill="#646464" d="M20.359,36.381h1.984V22.743h-1.984v-3.102h7.436v3.102H25.81V36.38h1.982v3.104h-7.436L20.359,36.381
				L20.359,36.381z"/>
		</g>
	</g>
</g>
<g>
	<path fill="#646464" stroke="#646464" stroke-miterlimit="10" d="M31.922,31.778c0-0.285-0.15-0.418-0.417-0.418h-0.76v-2.051
		h2.221c0.854,0,1.272,0.398,1.272,1.082v0.285c0,0.208-0.038,0.417-0.038,0.417h0.038c0.417-0.815,1.461-2.012,3.416-2.012
		c2.146,0,3.379,1.12,3.379,3.682v3.778c0,0.266,0.152,0.417,0.418,0.417h0.759v2.031h-2.296c-0.912,0-1.291-0.38-1.291-1.291
		v-4.441c0-1.177-0.304-1.974-1.519-1.974c-1.291,0-2.259,0.814-2.602,1.974c-0.133,0.398-0.189,0.835-0.189,1.291v4.441h-2.393
		L31.922,31.778L31.922,31.778z"/>
</g>
</svg>
