<?xml version="1.0" encoding="utf-8"?>
<!-- Generator: Adobe Illustrator 16.0.0, SVG Export Plug-In . SVG Version: 6.00 Build 0)  -->
<!DOCTYPE svg PUBLIC "-//W3C//DTD SVG 1.1//EN" "http://www.w3.org/Graphics/SVG/1.1/DTD/svg11.dtd">
<svg version="1.1" id="Camada_1" xmlns="http://www.w3.org/2000/svg" xmlns:xlink="http://www.w3.org/1999/xlink" x="0px" y="0px"
	 width="60.693px" height="60.693px" viewBox="0 0 60.693 60.693" enable-background="new 0 0 60.693 60.693" xml:space="preserve">
<g>
	<g>
		<g>
			<path fill="#FFFFFF" d="M58.693,55.517c0,1.746-1.43,3.178-3.177,3.178H5.177C3.429,58.695,2,57.263,2,55.517V5.177
				C2,3.429,3.429,2,5.177,2h50.34c1.748,0,3.176,1.43,3.176,3.177V55.517L58.693,55.517z"/>
			<path fill="none" stroke="#646464" stroke-width="4" stroke-miterlimit="10" d="M58.693,55.517c0,1.746-1.43,3.178-3.177,3.178
				H5.177C3.429,58.695,2,57.263,2,55.517V5.177C2,3.429,3.429,2,5.177,2h50.34c1.748,0,3.176,1.43,3.176,3.177V55.517
				L58.693,55.517z"/>
		</g>
		<path fill="#656565" stroke="#232323" stroke-miterlimit="10" d="M46.412,16.218c-0.247,0.021-3.149,0.324-3.149,0.324
			s2.089-2.536,2.357-2.858c0.198-0.242-0.029-0.455-0.258-0.386c-0.373,0.112-3.869,1.183-3.869,1.183
			c-3.565-1.551-7.538,0.336-8.108,5.588c-0.207,1.931-0.975,2.599-3.388,2.395l-9.897-0.845c0.236,6.062,5.322,10.442,11.356,9.78
			c2.081-0.23,4-1.03,5.61-2.224c0.104-0.086,0.314-0.106,0.42,0.013c0.126,0.135,0.109,0.331-0.018,0.468
			c-1.67,1.519-3.748,2.603-6.063,3.035c-4.5,0.832-8.691-1.051-11.005-4.499c-0.417-0.624-0.833-1.017-1.843-1.124
			c-0.963-0.104-8.815-0.937-8.815-0.937c-0.604-0.015-1.137,0.477-1.195,1.086c-0.056,0.621,0.388,1.131,0.992,1.148l3.494-0.21
			c0,0,3.304-0.193,3.58-0.212c0.281-0.018,0.339,0.328,0.085,0.427c-0.25,0.096-3.306,1.241-3.306,1.241l-3.36,1.266
			c-0.571,0.256-0.844,0.926-0.625,1.479c0.224,0.561,0.86,0.803,1.427,0.533c0,0,2.75-1.555,3.604-2.033
			c1.132-0.642,2.063-0.394,2.756,0.576c2.188,3.061,5.464,4.984,8.956,5.674l-0.341,1.211c-0.197,0.68,0.033,1.377,0.523,1.824
			l-1.857,6.498c-0.067,0.244-0.02,0.508,0.133,0.705c0.154,0.199,0.396,0.316,0.642,0.316h9.632c0.446,0,0.801-0.357,0.801-0.801
			c0-0.445-0.354-0.809-0.801-0.809h-3.471l1.563-5.471c0.65-0.121,1.221-0.592,1.411-1.275l0.956-3.346
			c0.252-0.121,0.511-0.24,0.752-0.381c4.524-2.578,7.807-7.93,7.276-16.375c0,0,2.976-2.396,3.191-2.573
			C46.773,16.459,46.743,16.179,46.412,16.218 M29.735,46.05h-3.408l1.563-5.471c0.654-0.121,1.215-0.59,1.413-1.275l0.367-1.301
			c0.292-1.01,1.504-0.668,1.312,0.012c-0.041,0.141-0.084,0.301-0.084,0.301c-0.198,0.678,0.034,1.377,0.525,1.824L29.735,46.05z
			 M39.481,18.456c-0.664,0-1.202-0.538-1.202-1.205c0-0.663,0.538-1.194,1.202-1.194c0.658,0,1.193,0.531,1.193,1.194
			C40.675,17.918,40.137,18.456,39.481,18.456"/>
	</g>
</g>
</svg>
