<?xml version="1.0" encoding="utf-8"?>
<!-- Generator: Adobe Illustrator 16.0.0, SVG Export Plug-In . SVG Version: 6.00 Build 0)  -->
<!DOCTYPE svg PUBLIC "-//W3C//DTD SVG 1.1//EN" "http://www.w3.org/Graphics/SVG/1.1/DTD/svg11.dtd">
<svg version="1.1" id="Camada_1" xmlns="http://www.w3.org/2000/svg" xmlns:xlink="http://www.w3.org/1999/xlink" x="0px" y="0px"
	 width="60.693px" height="60.693px" viewBox="0 0 60.693 60.693" enable-background="new 0 0 60.693 60.693" xml:space="preserve">
<g>
	<g>
		<g>
			<path d="M58.694,55.515c0,1.748-1.43,3.178-3.178,3.178H5.177C3.428,58.693,2,57.263,2,55.515V5.176
				c0-1.748,1.429-3.177,3.177-3.177h50.34c1.748,0,3.178,1.429,3.178,3.177V55.515z"/>
			<path fill="none" stroke="#FFFFFF" stroke-width="4" stroke-miterlimit="10" d="M58.694,55.515c0,1.748-1.43,3.178-3.178,3.178
				H5.177C3.428,58.693,2,57.263,2,55.515V5.176c0-1.748,1.429-3.177,3.177-3.177h50.34c1.748,0,3.178,1.429,3.178,3.177V55.515z"/>
		</g>
		<g enable-background="new    ">
			<path fill="#FFFFFF" d="M25.596,23.865h-1.517v-2.591h7.588c3.104,0,5.275,2.171,5.275,5.393s-2.171,5.463-5.275,5.463h-3.012
				v5.72h-3.059V23.865z M31.106,29.514c1.727,0,2.707-1.12,2.707-2.848c0-1.704-0.98-2.802-2.66-2.802h-2.499v5.649H31.106z"/>
		</g>
	</g>
</g>
</svg>
