<?xml version="1.0" encoding="utf-8"?>
<!-- Generator: Adobe Illustrator 16.0.0, SVG Export Plug-In . SVG Version: 6.00 Build 0)  -->
<!DOCTYPE svg PUBLIC "-//W3C//DTD SVG 1.1//EN" "http://www.w3.org/Graphics/SVG/1.1/DTD/svg11.dtd">
<svg version="1.1" id="Camada_1" xmlns="http://www.w3.org/2000/svg" xmlns:xlink="http://www.w3.org/1999/xlink" x="0px" y="0px"
	 width="60.693px" height="60.693px" viewBox="0 0 60.693 60.693" enable-background="new 0 0 60.693 60.693" xml:space="preserve">
<g>
	<g>
		<g>
			<path fill="#FFFFFF" d="M58.694,55.515c0,1.748-1.43,3.178-3.178,3.178H5.177C3.428,58.693,2,57.263,2,55.515V5.176
				c0-1.748,1.43-3.177,3.177-3.177h50.341c1.748,0,3.178,1.429,3.178,3.177L58.694,55.515L58.694,55.515z"/>
			<path fill="none" stroke="#646464" stroke-width="4" stroke-miterlimit="10" d="M58.694,55.515c0,1.748-1.43,3.178-3.178,3.178
				H5.177C3.428,58.693,2,57.263,2,55.515V5.176c0-1.748,1.43-3.177,3.177-3.177h50.341c1.748,0,3.178,1.429,3.178,3.177
				L58.694,55.515L58.694,55.515z"/>
		</g>
		<g enable-background="new    ">
			<path fill="#646464" d="M18.961,22.742h-1.817v-3.101h9.083c3.716,0,6.316,2.599,6.316,6.455c0,3.858-2.6,6.54-6.316,6.54h-3.605
				v6.849h-3.661V22.742z M25.556,29.505c2.067,0,3.241-1.341,3.241-3.41c0-2.04-1.174-3.354-3.185-3.354h-2.992v6.763h2.935V29.505
				z"/>
		</g>
	</g>
</g>
<g>
	<path fill="#646464" d="M34.645,30.3c0-0.362-0.193-0.532-0.531-0.532h-0.967v-2.61h2.924c1.137,0,1.62,0.507,1.62,1.644v7.564
		c0,0.34,0.193,0.533,0.531,0.533h0.967v2.586h-2.925c-1.136,0-1.619-0.484-1.619-1.645V30.3z M34.791,22.324h2.658v2.828h-2.658
		V22.324z"/>
</g>
</svg>
