<?xml version="1.0" encoding="iso-8859-1"?>
<!-- Generator: Adobe Illustrator 16.0.0, SVG Export Plug-In . SVG Version: 6.00 Build 0)  -->
<!DOCTYPE svg PUBLIC "-//W3C//DTD SVG 1.1//EN" "http://www.w3.org/Graphics/SVG/1.1/DTD/svg11.dtd">
<svg version="1.1" id="Camada_1" xmlns="http://www.w3.org/2000/svg" xmlns:xlink="http://www.w3.org/1999/xlink" x="0px" y="0px"
	 width="235.164px" height="136px" viewBox="-20.336 0 235.164 136" style="enable-background:new -20.336 0 235.164 136;"
	 xml:space="preserve">
<polygon style="fill:#FFFFFF;" points="49.12,76.746 63.651,91.172 63.651,82.141 58.148,76.746 "/>
<polygon style="fill:#FFFFFF;" points="58.148,47.89 58.148,76.746 60.011,76.746 60.011,49.649 "/>
<polygon style="fill:#FFFFFF;" points="67.157,47.89 67.157,76.746 70.779,76.746 70.779,51.41 "/>
<polygon style="fill:#FFFFFF;" points="60.011,76.746 74.423,91.172 74.423,83.9 67.157,76.746 "/>
<polygon style="fill:#FFFFFF;" points="70.779,76.746 85.192,91.172 85.192,85.777 76.164,76.746 "/>
<polygon style="fill:#FFFFFF;" points="76.164,47.89 76.164,76.746 81.551,76.746 81.551,53.287 "/>
<polygon style="fill:#FFFFFF;" points="85.192,47.89 85.192,76.746 92.438,76.746 92.438,55.045 "/>
<polygon style="fill:#FFFFFF;" points="81.551,76.746 95.965,91.172 95.965,87.54 85.192,76.746 "/>
<polygon style="fill:#FFFFFF;" points="92.438,76.746 106.854,91.172 106.854,89.297 94.202,76.746 "/>
<polygon style="fill:#FFFFFF;" points="94.202,47.89 94.202,76.746 103.208,76.746 103.208,56.805 "/>
<g>
	<path style="fill:#FFFFFF;" d="M115.13,72.294c0.021,0.806,0.418,2.327,3.05,2.327c1.424,0,3.009-0.339,3.009-1.863
		c0-1.123-1.082-1.425-2.609-1.787l-1.545-0.361c-2.328-0.541-4.574-1.064-4.574-4.231c0-1.61,0.863-4.438,5.539-4.438
		c4.416,0,5.597,2.89,5.615,4.654h-2.888c-0.078-0.642-0.319-2.165-2.95-2.165c-1.143,0-2.509,0.421-2.509,1.726
		c0,1.125,0.923,1.365,1.528,1.504l3.509,0.866c1.967,0.479,3.772,1.281,3.772,3.871c0,4.336-4.412,4.715-5.68,4.715
		c-5.255,0-6.16-3.03-6.16-4.815h2.893V72.294z"/>
	<path style="fill:#FFFFFF;" d="M131.714,69.043c2.246,0,2.246-1.604,2.246-2.248c0-1.403-0.78-1.984-2.648-1.984h-2.389v4.232
		H131.714z M128.923,76.73h-3.01V62.319h6.586c2.787,0,4.474,1.788,4.474,4.616c0,1.305-0.724,4.594-4.595,4.594h-3.455V76.73
		L128.923,76.73z"/>
	<path style="fill:#FFFFFF;" d="M150.151,71.691c0,3.795-2.287,5.42-5.918,5.42c-1.323,0-3.293-0.319-4.578-1.743
		c-0.78-0.886-1.081-2.05-1.124-3.497v-9.552h3.072v9.354c0,2.007,1.167,2.892,2.566,2.892c2.068,0,2.912-1.004,2.912-2.752V62.32
		h3.068L150.151,71.691L150.151,71.691z"/>
	<path style="fill:#FFFFFF;" d="M159.007,68.664c1.566,0,2.33-0.545,2.33-1.97c0-0.762-0.342-1.884-2.108-1.884h-3.753v3.854
		H159.007z M152.525,62.319h7.285c3.833,0,4.536,2.832,4.536,4.075c0,1.584-0.802,2.947-2.228,3.434
		c1.182,0.521,1.827,0.961,1.827,3.648c0,2.107,0,2.633,0.64,2.873v0.381h-3.33c-0.199-0.686-0.319-1.426-0.319-2.91
		c0-1.967-0.121-2.729-2.349-2.729h-3.111v5.64h-2.95L152.525,62.319L152.525,62.319z"/>
	<path style="fill:#FFFFFF;" d="M169.367,74.24h3.69c1.464,0,2.31-0.641,2.31-2.105c0-1.266-1.082-1.746-2.168-1.746h-3.832V74.24z
		 M169.367,67.959h3.529c1.186,0,2.127-0.46,2.127-1.604c0-1.184-0.843-1.544-2.207-1.544h-3.451v3.148H169.367z M166.474,62.319
		h7.005c3.533,0,4.435,2.21,4.435,3.694c0,2.066-1.162,2.65-1.765,2.946c1.765,0.666,2.229,2.07,2.229,3.496
		c0,1.145-0.483,2.229-1.246,2.97c-0.821,0.806-1.604,1.306-4.557,1.306h-6.102V62.319z"/>
</g>
<line style="fill:none;stroke:#FFFFFF;stroke-miterlimit:10;" x1="13" y1="38.5" x2="13" y2="96.447"/>
</svg>
